%TF.GenerationSoftware,KiCad,Pcbnew,9.0.7*%
%TF.CreationDate,2026-09-26T10:30:24+07:00*%
%TF.ProjectId,stm32f103_Muhammad Refansa Annaafi,73746d33-3266-4313-9033-5f4d7568616d,rev?*%
%TF.SameCoordinates,Original*%
%TF.FileFunction,Copper,L2,Bot*%
%TF.FilePolarity,Positive*%
%FSLAX46Y46*%
G04 Gerber Fmt 4.6, Leading zero omitted, Abs format (unit mm)*
G04 Created by KiCad (PCBNEW 9.0.7) date 2026-09-26 10:30:24*
%MOMM*%
%LPD*%
G01*
G04 APERTURE LIST*
%TA.AperFunction,ComponentPad*%
%ADD10R,0.850000X0.850000*%
%TD*%
%TA.AperFunction,ComponentPad*%
%ADD11C,0.850000*%
%TD*%
%TA.AperFunction,HeatsinkPad*%
%ADD12O,1.150000X1.800000*%
%TD*%
%TA.AperFunction,HeatsinkPad*%
%ADD13O,1.450000X2.000000*%
%TD*%
%TA.AperFunction,ViaPad*%
%ADD14C,0.600000*%
%TD*%
G04 APERTURE END LIST*
D10*
%TO.P,J1,1,Pin_1*%
%TO.N,GND*%
X161576000Y-90155346D03*
D11*
%TO.P,J1,2,Pin_2*%
%TO.N,/SWDCLK*%
X162576000Y-90155346D03*
%TO.P,J1,3,Pin_3*%
%TO.N,/SWDIO*%
X163576000Y-90155346D03*
%TO.P,J1,4,Pin_4*%
%TO.N,+3.3V*%
X164576000Y-90155346D03*
%TD*%
D10*
%TO.P,J3,1,Pin_1*%
%TO.N,+3.3V*%
X151251000Y-108630346D03*
D11*
%TO.P,J3,2,Pin_2*%
%TO.N,/SPI1_NSS*%
X152251000Y-108630346D03*
%TO.P,J3,3,Pin_3*%
%TO.N,/SPI1_SCK*%
X153251000Y-108630346D03*
%TO.P,J3,4,Pin_4*%
%TO.N,/SPI1_MISO*%
X154251000Y-108630346D03*
%TO.P,J3,5,Pin_5*%
%TO.N,/SPI1_MOSI*%
X155251000Y-108630346D03*
%TO.P,J3,6,Pin_6*%
%TO.N,GND*%
X156251000Y-108630346D03*
%TD*%
D12*
%TO.P,J2,6,Shield*%
%TO.N,GND*%
X174851000Y-92005346D03*
D13*
X174701000Y-95805346D03*
X167251000Y-95805346D03*
D12*
X167101000Y-92005346D03*
%TD*%
D10*
%TO.P,J4,1,Pin_1*%
%TO.N,GND*%
X162101000Y-108580346D03*
D11*
%TO.P,J4,2,Pin_2*%
%TO.N,/I2C_SDA*%
X161101000Y-108580346D03*
%TO.P,J4,3,Pin_3*%
%TO.N,/I2C_SCL*%
X160101000Y-108580346D03*
%TO.P,J4,4,Pin_4*%
%TO.N,+3.3V*%
X159101000Y-108580346D03*
%TD*%
D14*
%TO.N,GND*%
X157651000Y-89255346D03*
X162726000Y-103056346D03*
X153526000Y-95530346D03*
X161851000Y-96630346D03*
X163701000Y-107705346D03*
X173176000Y-98180346D03*
X170412765Y-97917111D03*
X163776000Y-95405346D03*
X153580917Y-99895846D03*
X156851000Y-106830346D03*
X153301000Y-98730346D03*
X157951000Y-92955346D03*
X150126000Y-93880346D03*
X160776000Y-91880346D03*
X147426000Y-95005346D03*
%TD*%
%TA.AperFunction,Conductor*%
%TO.N,GND*%
G36*
X176642539Y-87495185D02*
G01*
X176688294Y-87547989D01*
X176699500Y-87599500D01*
X176699500Y-111750500D01*
X176679815Y-111817539D01*
X176627011Y-111863294D01*
X176575500Y-111874500D01*
X144124500Y-111874500D01*
X144057461Y-111854815D01*
X144011706Y-111802011D01*
X144000500Y-111750500D01*
X144000500Y-108160477D01*
X150525500Y-108160477D01*
X150525500Y-109100202D01*
X150525502Y-109100228D01*
X150528413Y-109125333D01*
X150528415Y-109125337D01*
X150573793Y-109228110D01*
X150573794Y-109228111D01*
X150653235Y-109307552D01*
X150756009Y-109352931D01*
X150781135Y-109355846D01*
X151720864Y-109355845D01*
X151720879Y-109355843D01*
X151720882Y-109355843D01*
X151745986Y-109352932D01*
X151745987Y-109352931D01*
X151745991Y-109352931D01*
X151848765Y-109307552D01*
X151848766Y-109307550D01*
X151859277Y-109302910D01*
X151860050Y-109304661D01*
X151912995Y-109287401D01*
X151964104Y-109296784D01*
X152039380Y-109327965D01*
X152039384Y-109327965D01*
X152039385Y-109327966D01*
X152179542Y-109355846D01*
X152179545Y-109355846D01*
X152322457Y-109355846D01*
X152416751Y-109337088D01*
X152462620Y-109327965D01*
X152594653Y-109273275D01*
X152633330Y-109247432D01*
X152682109Y-109214839D01*
X152748786Y-109193961D01*
X152816167Y-109212445D01*
X152819891Y-109214839D01*
X152907340Y-109273271D01*
X152907349Y-109273276D01*
X152937258Y-109285664D01*
X153039380Y-109327965D01*
X153039384Y-109327965D01*
X153039385Y-109327966D01*
X153179542Y-109355846D01*
X153179545Y-109355846D01*
X153322457Y-109355846D01*
X153416751Y-109337088D01*
X153462620Y-109327965D01*
X153594653Y-109273275D01*
X153633330Y-109247432D01*
X153682109Y-109214839D01*
X153748786Y-109193961D01*
X153816167Y-109212445D01*
X153819891Y-109214839D01*
X153907340Y-109273271D01*
X153907349Y-109273276D01*
X153937258Y-109285664D01*
X154039380Y-109327965D01*
X154039384Y-109327965D01*
X154039385Y-109327966D01*
X154179542Y-109355846D01*
X154179545Y-109355846D01*
X154322457Y-109355846D01*
X154416751Y-109337088D01*
X154462620Y-109327965D01*
X154594653Y-109273275D01*
X154633330Y-109247432D01*
X154682109Y-109214839D01*
X154748786Y-109193961D01*
X154816167Y-109212445D01*
X154819891Y-109214839D01*
X154907340Y-109273271D01*
X154907349Y-109273276D01*
X154937258Y-109285664D01*
X155039380Y-109327965D01*
X155039384Y-109327965D01*
X155039385Y-109327966D01*
X155179542Y-109355846D01*
X155179545Y-109355846D01*
X155322457Y-109355846D01*
X155416751Y-109337088D01*
X155462620Y-109327965D01*
X155594653Y-109273275D01*
X155653761Y-109233779D01*
X155720438Y-109212901D01*
X155787818Y-109231385D01*
X155834509Y-109283363D01*
X155845687Y-109352333D01*
X155817802Y-109416397D01*
X155810335Y-109424561D01*
X155796050Y-109438845D01*
X155796050Y-109438846D01*
X155812849Y-109450071D01*
X155812855Y-109450074D01*
X155981182Y-109519797D01*
X155981194Y-109519800D01*
X156159890Y-109555345D01*
X156159894Y-109555346D01*
X156342106Y-109555346D01*
X156342109Y-109555345D01*
X156520805Y-109519800D01*
X156520813Y-109519798D01*
X156689151Y-109450070D01*
X156689154Y-109450069D01*
X156705947Y-109438846D01*
X156705948Y-109438846D01*
X156251001Y-108983899D01*
X156045215Y-109189683D01*
X155983892Y-109223167D01*
X155914200Y-109218183D01*
X155858267Y-109176311D01*
X155833850Y-109110847D01*
X155848702Y-109042574D01*
X155854422Y-109033124D01*
X155893929Y-108973999D01*
X155948619Y-108841966D01*
X155976500Y-108701801D01*
X155976500Y-108580618D01*
X156001000Y-108580618D01*
X156001000Y-108680074D01*
X156039060Y-108771960D01*
X156109386Y-108842286D01*
X156201272Y-108880346D01*
X156300728Y-108880346D01*
X156392614Y-108842286D01*
X156462940Y-108771960D01*
X156501000Y-108680074D01*
X156501000Y-108630345D01*
X156604553Y-108630345D01*
X156604553Y-108630347D01*
X157059500Y-109085294D01*
X157059500Y-109085293D01*
X157070723Y-109068500D01*
X157070724Y-109068497D01*
X157140452Y-108900159D01*
X157140455Y-108900150D01*
X157175999Y-108721455D01*
X157176000Y-108721452D01*
X157176000Y-108651803D01*
X158375499Y-108651803D01*
X158403379Y-108791960D01*
X158403381Y-108791966D01*
X158458069Y-108923996D01*
X158458074Y-108924005D01*
X158537467Y-109042824D01*
X158537470Y-109042828D01*
X158638517Y-109143875D01*
X158638521Y-109143878D01*
X158757340Y-109223271D01*
X158757349Y-109223276D01*
X158769022Y-109228111D01*
X158889380Y-109277965D01*
X158889384Y-109277965D01*
X158889385Y-109277966D01*
X159029542Y-109305846D01*
X159029545Y-109305846D01*
X159172457Y-109305846D01*
X159266751Y-109287088D01*
X159312620Y-109277965D01*
X159444653Y-109223275D01*
X159460861Y-109212445D01*
X159532109Y-109164839D01*
X159598786Y-109143961D01*
X159666167Y-109162445D01*
X159669891Y-109164839D01*
X159757340Y-109223271D01*
X159757349Y-109223276D01*
X159769022Y-109228111D01*
X159889380Y-109277965D01*
X159889384Y-109277965D01*
X159889385Y-109277966D01*
X160029542Y-109305846D01*
X160029545Y-109305846D01*
X160172457Y-109305846D01*
X160266751Y-109287088D01*
X160312620Y-109277965D01*
X160444653Y-109223275D01*
X160460861Y-109212445D01*
X160532109Y-109164839D01*
X160598786Y-109143961D01*
X160666167Y-109162445D01*
X160669891Y-109164839D01*
X160757340Y-109223271D01*
X160757349Y-109223276D01*
X160769022Y-109228111D01*
X160889380Y-109277965D01*
X160889384Y-109277965D01*
X160889385Y-109277966D01*
X161029542Y-109305846D01*
X161029545Y-109305846D01*
X161172455Y-109305846D01*
X161186269Y-109303098D01*
X161255859Y-109309324D01*
X161309727Y-109350402D01*
X161318806Y-109362529D01*
X161318814Y-109362537D01*
X161433906Y-109448696D01*
X161433913Y-109448700D01*
X161568620Y-109498942D01*
X161568627Y-109498944D01*
X161628155Y-109505345D01*
X161628172Y-109505346D01*
X161851000Y-109505346D01*
X162351000Y-109505346D01*
X162573828Y-109505346D01*
X162573844Y-109505345D01*
X162633372Y-109498944D01*
X162633379Y-109498942D01*
X162768086Y-109448700D01*
X162768093Y-109448696D01*
X162883187Y-109362536D01*
X162883190Y-109362533D01*
X162969350Y-109247439D01*
X162969354Y-109247432D01*
X163019596Y-109112725D01*
X163019598Y-109112718D01*
X163025999Y-109053190D01*
X163026000Y-109053173D01*
X163026000Y-108830346D01*
X162351000Y-108830346D01*
X162351000Y-109505346D01*
X161851000Y-109505346D01*
X161851000Y-108630074D01*
X161889060Y-108721960D01*
X161959386Y-108792286D01*
X162051272Y-108830346D01*
X162150728Y-108830346D01*
X162242614Y-108792286D01*
X162312940Y-108721960D01*
X162351000Y-108630074D01*
X162351000Y-108530618D01*
X162312940Y-108438732D01*
X162242614Y-108368406D01*
X162150728Y-108330346D01*
X162351000Y-108330346D01*
X163026000Y-108330346D01*
X163026000Y-108107518D01*
X163025999Y-108107501D01*
X163019598Y-108047973D01*
X163019596Y-108047966D01*
X162969354Y-107913259D01*
X162969350Y-107913252D01*
X162883190Y-107798158D01*
X162883187Y-107798155D01*
X162768093Y-107711995D01*
X162768086Y-107711991D01*
X162633379Y-107661749D01*
X162633372Y-107661747D01*
X162573844Y-107655346D01*
X162351000Y-107655346D01*
X162351000Y-108330346D01*
X162150728Y-108330346D01*
X162051272Y-108330346D01*
X161959386Y-108368406D01*
X161889060Y-108438732D01*
X161851000Y-108530618D01*
X161851000Y-107655346D01*
X161628155Y-107655346D01*
X161568627Y-107661747D01*
X161568620Y-107661749D01*
X161433913Y-107711991D01*
X161433906Y-107711995D01*
X161318812Y-107798155D01*
X161318811Y-107798156D01*
X161309726Y-107810292D01*
X161253790Y-107852160D01*
X161186277Y-107857594D01*
X161172461Y-107854846D01*
X161172455Y-107854846D01*
X161029545Y-107854846D01*
X161029543Y-107854846D01*
X160889385Y-107882725D01*
X160889379Y-107882727D01*
X160757349Y-107937415D01*
X160757342Y-107937419D01*
X160669890Y-107995853D01*
X160603213Y-108016730D01*
X160535833Y-107998245D01*
X160532110Y-107995853D01*
X160444657Y-107937419D01*
X160444650Y-107937415D01*
X160312620Y-107882727D01*
X160312614Y-107882725D01*
X160172457Y-107854846D01*
X160172455Y-107854846D01*
X160029545Y-107854846D01*
X160029543Y-107854846D01*
X159889385Y-107882725D01*
X159889379Y-107882727D01*
X159757349Y-107937415D01*
X159757342Y-107937419D01*
X159669890Y-107995853D01*
X159603213Y-108016730D01*
X159535833Y-107998245D01*
X159532110Y-107995853D01*
X159444657Y-107937419D01*
X159444650Y-107937415D01*
X159312620Y-107882727D01*
X159312614Y-107882725D01*
X159172457Y-107854846D01*
X159172455Y-107854846D01*
X159029545Y-107854846D01*
X159029543Y-107854846D01*
X158889385Y-107882725D01*
X158889379Y-107882727D01*
X158757349Y-107937415D01*
X158757340Y-107937420D01*
X158638521Y-108016813D01*
X158638517Y-108016816D01*
X158537470Y-108117863D01*
X158537467Y-108117867D01*
X158458074Y-108236686D01*
X158458069Y-108236695D01*
X158403381Y-108368725D01*
X158403379Y-108368731D01*
X158375500Y-108508888D01*
X158375500Y-108508891D01*
X158375500Y-108651801D01*
X158375500Y-108651803D01*
X158375499Y-108651803D01*
X157176000Y-108651803D01*
X157176000Y-108539240D01*
X157173563Y-108526988D01*
X157173563Y-108526985D01*
X157140454Y-108360540D01*
X157140451Y-108360528D01*
X157070728Y-108192201D01*
X157070725Y-108192195D01*
X157059500Y-108175396D01*
X156604553Y-108630345D01*
X156501000Y-108630345D01*
X156501000Y-108580618D01*
X156462940Y-108488732D01*
X156392614Y-108418406D01*
X156300728Y-108380346D01*
X156201272Y-108380346D01*
X156109386Y-108418406D01*
X156039060Y-108488732D01*
X156001000Y-108580618D01*
X155976500Y-108580618D01*
X155976500Y-108558891D01*
X155976500Y-108558888D01*
X155948620Y-108418731D01*
X155948619Y-108418730D01*
X155948619Y-108418726D01*
X155893929Y-108286693D01*
X155893928Y-108286692D01*
X155893925Y-108286686D01*
X155854430Y-108227578D01*
X155833552Y-108160901D01*
X155852036Y-108093520D01*
X155904015Y-108046830D01*
X155972985Y-108035654D01*
X156037049Y-108063539D01*
X156045213Y-108071006D01*
X156251000Y-108276792D01*
X156251001Y-108276792D01*
X156705947Y-107821844D01*
X156689145Y-107810617D01*
X156520817Y-107740894D01*
X156520805Y-107740891D01*
X156342109Y-107705346D01*
X156159890Y-107705346D01*
X155981194Y-107740891D01*
X155981186Y-107740893D01*
X155812848Y-107810620D01*
X155796050Y-107821844D01*
X155810337Y-107836131D01*
X155843822Y-107897454D01*
X155838838Y-107967146D01*
X155796966Y-108023079D01*
X155731502Y-108047496D01*
X155663229Y-108032644D01*
X155653765Y-108026914D01*
X155594659Y-107987420D01*
X155594650Y-107987415D01*
X155462620Y-107932727D01*
X155462614Y-107932725D01*
X155322457Y-107904846D01*
X155322455Y-107904846D01*
X155179545Y-107904846D01*
X155179543Y-107904846D01*
X155039385Y-107932725D01*
X155039379Y-107932727D01*
X154907349Y-107987415D01*
X154907342Y-107987419D01*
X154819890Y-108045853D01*
X154753213Y-108066730D01*
X154685833Y-108048245D01*
X154682110Y-108045853D01*
X154594657Y-107987419D01*
X154594650Y-107987415D01*
X154462620Y-107932727D01*
X154462614Y-107932725D01*
X154322457Y-107904846D01*
X154322455Y-107904846D01*
X154179545Y-107904846D01*
X154179543Y-107904846D01*
X154039385Y-107932725D01*
X154039379Y-107932727D01*
X153907349Y-107987415D01*
X153907342Y-107987419D01*
X153819890Y-108045853D01*
X153753213Y-108066730D01*
X153685833Y-108048245D01*
X153682110Y-108045853D01*
X153594657Y-107987419D01*
X153594650Y-107987415D01*
X153462620Y-107932727D01*
X153462614Y-107932725D01*
X153322457Y-107904846D01*
X153322455Y-107904846D01*
X153179545Y-107904846D01*
X153179543Y-107904846D01*
X153039385Y-107932725D01*
X153039379Y-107932727D01*
X152907349Y-107987415D01*
X152907342Y-107987419D01*
X152819890Y-108045853D01*
X152753213Y-108066730D01*
X152685833Y-108048245D01*
X152682110Y-108045853D01*
X152594657Y-107987419D01*
X152594650Y-107987415D01*
X152462620Y-107932727D01*
X152462614Y-107932725D01*
X152322457Y-107904846D01*
X152322455Y-107904846D01*
X152179545Y-107904846D01*
X152179543Y-107904846D01*
X152039385Y-107932725D01*
X152039379Y-107932727D01*
X151964110Y-107963905D01*
X151894640Y-107971374D01*
X151859620Y-107956997D01*
X151859275Y-107957781D01*
X151848765Y-107953140D01*
X151802529Y-107932725D01*
X151745992Y-107907761D01*
X151720865Y-107904846D01*
X150781143Y-107904846D01*
X150781117Y-107904848D01*
X150756012Y-107907759D01*
X150756008Y-107907761D01*
X150653235Y-107953139D01*
X150573794Y-108032580D01*
X150528415Y-108135352D01*
X150528415Y-108135354D01*
X150525500Y-108160477D01*
X144000500Y-108160477D01*
X144000500Y-95433936D01*
X166026000Y-95433936D01*
X166026000Y-95555346D01*
X166826000Y-95555346D01*
X166826000Y-96055346D01*
X166026000Y-96055346D01*
X166026000Y-96176755D01*
X166056164Y-96367202D01*
X166115746Y-96550580D01*
X166115747Y-96550583D01*
X166203288Y-96722389D01*
X166316616Y-96878373D01*
X166316620Y-96878378D01*
X166452967Y-97014725D01*
X166452972Y-97014729D01*
X166608956Y-97128057D01*
X166780762Y-97215598D01*
X166780765Y-97215599D01*
X166964142Y-97275181D01*
X167001000Y-97281019D01*
X167001000Y-96426755D01*
X167086956Y-96476383D01*
X167195048Y-96505346D01*
X167306952Y-96505346D01*
X167415044Y-96476383D01*
X167501000Y-96426755D01*
X167501000Y-97281018D01*
X167537855Y-97275181D01*
X167537858Y-97275181D01*
X167721234Y-97215599D01*
X167721237Y-97215598D01*
X167893043Y-97128057D01*
X168049027Y-97014729D01*
X168049032Y-97014725D01*
X168185379Y-96878378D01*
X168185383Y-96878373D01*
X168298711Y-96722389D01*
X168386252Y-96550583D01*
X168386253Y-96550580D01*
X168445835Y-96367202D01*
X168476000Y-96176755D01*
X168476000Y-96055346D01*
X167676000Y-96055346D01*
X167676000Y-95555346D01*
X168476000Y-95555346D01*
X168482645Y-95548700D01*
X168495685Y-95504294D01*
X168548489Y-95458539D01*
X168575798Y-95449718D01*
X168680328Y-95428926D01*
X168807811Y-95376121D01*
X168922542Y-95299460D01*
X169020114Y-95201888D01*
X169096775Y-95087157D01*
X169149580Y-94959674D01*
X169176500Y-94824341D01*
X172775499Y-94824341D01*
X172802418Y-94959668D01*
X172802421Y-94959678D01*
X172855221Y-95087150D01*
X172855228Y-95087163D01*
X172931885Y-95201887D01*
X172931888Y-95201891D01*
X173029454Y-95299457D01*
X173029458Y-95299460D01*
X173144182Y-95376117D01*
X173144195Y-95376124D01*
X173220678Y-95407804D01*
X173271672Y-95428926D01*
X173376194Y-95449717D01*
X173438102Y-95482100D01*
X173472676Y-95542816D01*
X173473890Y-95553236D01*
X173476000Y-95555346D01*
X174276000Y-95555346D01*
X174276000Y-96055346D01*
X173476000Y-96055346D01*
X173476000Y-96176755D01*
X173506164Y-96367202D01*
X173565746Y-96550580D01*
X173565747Y-96550583D01*
X173653288Y-96722389D01*
X173766616Y-96878373D01*
X173766620Y-96878378D01*
X173902967Y-97014725D01*
X173902972Y-97014729D01*
X174058956Y-97128057D01*
X174230762Y-97215598D01*
X174230765Y-97215599D01*
X174414142Y-97275181D01*
X174451000Y-97281019D01*
X174451000Y-96426755D01*
X174536956Y-96476383D01*
X174645048Y-96505346D01*
X174756952Y-96505346D01*
X174865044Y-96476383D01*
X174951000Y-96426755D01*
X174951000Y-97281018D01*
X174987855Y-97275181D01*
X174987858Y-97275181D01*
X175171234Y-97215599D01*
X175171237Y-97215598D01*
X175343043Y-97128057D01*
X175499027Y-97014729D01*
X175499032Y-97014725D01*
X175635379Y-96878378D01*
X175635383Y-96878373D01*
X175748711Y-96722389D01*
X175836252Y-96550583D01*
X175836253Y-96550580D01*
X175895835Y-96367202D01*
X175926000Y-96176755D01*
X175926000Y-96055346D01*
X175126000Y-96055346D01*
X175126000Y-95555346D01*
X175926000Y-95555346D01*
X175926000Y-95433936D01*
X175895835Y-95243489D01*
X175836253Y-95060111D01*
X175836252Y-95060108D01*
X175748711Y-94888302D01*
X175635383Y-94732318D01*
X175635379Y-94732313D01*
X175499032Y-94595966D01*
X175499027Y-94595962D01*
X175343043Y-94482634D01*
X175171237Y-94395093D01*
X175171231Y-94395091D01*
X174987858Y-94335511D01*
X174987848Y-94335508D01*
X174951000Y-94329671D01*
X174951000Y-95183936D01*
X174865044Y-95134309D01*
X174756952Y-95105346D01*
X174645048Y-95105346D01*
X174536956Y-95134309D01*
X174451000Y-95183936D01*
X174451000Y-94329671D01*
X174414151Y-94335508D01*
X174414141Y-94335511D01*
X174230768Y-94395091D01*
X174230761Y-94395094D01*
X174214806Y-94403224D01*
X174146137Y-94416119D01*
X174081397Y-94389842D01*
X174055411Y-94361629D01*
X174020114Y-94308804D01*
X174020111Y-94308800D01*
X173922545Y-94211234D01*
X173922541Y-94211231D01*
X173807817Y-94134574D01*
X173807804Y-94134567D01*
X173680332Y-94081767D01*
X173680322Y-94081764D01*
X173544995Y-94054846D01*
X173544993Y-94054846D01*
X173407007Y-94054846D01*
X173407005Y-94054846D01*
X173271677Y-94081764D01*
X173271667Y-94081767D01*
X173144195Y-94134567D01*
X173144182Y-94134574D01*
X173029458Y-94211231D01*
X173029454Y-94211234D01*
X172931888Y-94308800D01*
X172931885Y-94308804D01*
X172855228Y-94423528D01*
X172855221Y-94423541D01*
X172802421Y-94551013D01*
X172802418Y-94551023D01*
X172775500Y-94686350D01*
X172775500Y-94686353D01*
X172775500Y-94824339D01*
X172775500Y-94824341D01*
X172775499Y-94824341D01*
X169176500Y-94824341D01*
X169176500Y-94824339D01*
X169176500Y-94686353D01*
X169176500Y-94686350D01*
X169149581Y-94551023D01*
X169149580Y-94551022D01*
X169149580Y-94551018D01*
X169121255Y-94482634D01*
X169096778Y-94423541D01*
X169096771Y-94423528D01*
X169020114Y-94308804D01*
X169020111Y-94308800D01*
X168922545Y-94211234D01*
X168922541Y-94211231D01*
X168807817Y-94134574D01*
X168807804Y-94134567D01*
X168680332Y-94081767D01*
X168680322Y-94081764D01*
X168544995Y-94054846D01*
X168544993Y-94054846D01*
X168407007Y-94054846D01*
X168407005Y-94054846D01*
X168271677Y-94081764D01*
X168271667Y-94081767D01*
X168144195Y-94134567D01*
X168144182Y-94134574D01*
X168029458Y-94211231D01*
X168029454Y-94211234D01*
X167931888Y-94308800D01*
X167931885Y-94308804D01*
X167896589Y-94361629D01*
X167842977Y-94406434D01*
X167773652Y-94415141D01*
X167737194Y-94403224D01*
X167721238Y-94395094D01*
X167721231Y-94395091D01*
X167537858Y-94335511D01*
X167537848Y-94335508D01*
X167501000Y-94329671D01*
X167501000Y-95183936D01*
X167415044Y-95134309D01*
X167306952Y-95105346D01*
X167195048Y-95105346D01*
X167086956Y-95134309D01*
X167001000Y-95183936D01*
X167001000Y-94329671D01*
X166964151Y-94335508D01*
X166964141Y-94335511D01*
X166780768Y-94395091D01*
X166780762Y-94395093D01*
X166608956Y-94482634D01*
X166452972Y-94595962D01*
X166452967Y-94595966D01*
X166316620Y-94732313D01*
X166316616Y-94732318D01*
X166203288Y-94888302D01*
X166115747Y-95060108D01*
X166115746Y-95060111D01*
X166056164Y-95243489D01*
X166026000Y-95433936D01*
X144000500Y-95433936D01*
X144000500Y-91595736D01*
X166026000Y-91595736D01*
X166026000Y-91755346D01*
X166826000Y-91755346D01*
X166826000Y-92255346D01*
X166026000Y-92255346D01*
X166026000Y-92414955D01*
X166052469Y-92582072D01*
X166104760Y-92743005D01*
X166181578Y-92893769D01*
X166281038Y-93030662D01*
X166281038Y-93030663D01*
X166400682Y-93150307D01*
X166537576Y-93249767D01*
X166688340Y-93326585D01*
X166849273Y-93378876D01*
X166851000Y-93379150D01*
X166851000Y-92445402D01*
X166867866Y-92486121D01*
X166945225Y-92563480D01*
X167046299Y-92605346D01*
X167155701Y-92605346D01*
X167256775Y-92563480D01*
X167334134Y-92486121D01*
X167351000Y-92445402D01*
X167351000Y-93379150D01*
X167352726Y-93378876D01*
X167513659Y-93326585D01*
X167664423Y-93249767D01*
X167801316Y-93150307D01*
X167801317Y-93150307D01*
X167920961Y-93030663D01*
X167920961Y-93030662D01*
X168020421Y-92893769D01*
X168097239Y-92743005D01*
X168149530Y-92582072D01*
X168176000Y-92414955D01*
X168176000Y-92255346D01*
X167376000Y-92255346D01*
X167376000Y-91755346D01*
X168176000Y-91755346D01*
X168176000Y-91595736D01*
X173776000Y-91595736D01*
X173776000Y-91755346D01*
X174576000Y-91755346D01*
X174576000Y-92255346D01*
X173776000Y-92255346D01*
X173776000Y-92414955D01*
X173802469Y-92582072D01*
X173854760Y-92743005D01*
X173931578Y-92893769D01*
X174031038Y-93030662D01*
X174031038Y-93030663D01*
X174150682Y-93150307D01*
X174287576Y-93249767D01*
X174438340Y-93326585D01*
X174599273Y-93378876D01*
X174601000Y-93379150D01*
X174601000Y-92445402D01*
X174617866Y-92486121D01*
X174695225Y-92563480D01*
X174796299Y-92605346D01*
X174905701Y-92605346D01*
X175006775Y-92563480D01*
X175084134Y-92486121D01*
X175101000Y-92445402D01*
X175101000Y-93379150D01*
X175102726Y-93378876D01*
X175263659Y-93326585D01*
X175414423Y-93249767D01*
X175551316Y-93150307D01*
X175551317Y-93150307D01*
X175670961Y-93030663D01*
X175670961Y-93030662D01*
X175770421Y-92893769D01*
X175847239Y-92743005D01*
X175899530Y-92582072D01*
X175926000Y-92414955D01*
X175926000Y-92255346D01*
X175126000Y-92255346D01*
X175126000Y-91755346D01*
X175926000Y-91755346D01*
X175926000Y-91595736D01*
X175899530Y-91428619D01*
X175847239Y-91267686D01*
X175770421Y-91116922D01*
X175670961Y-90980029D01*
X175670961Y-90980028D01*
X175551317Y-90860384D01*
X175414423Y-90760924D01*
X175263661Y-90684106D01*
X175102726Y-90631815D01*
X175101000Y-90631540D01*
X175101000Y-91565289D01*
X175084134Y-91524571D01*
X175006775Y-91447212D01*
X174905701Y-91405346D01*
X174796299Y-91405346D01*
X174695225Y-91447212D01*
X174617866Y-91524571D01*
X174601000Y-91565289D01*
X174601000Y-90631541D01*
X174600999Y-90631540D01*
X174599273Y-90631815D01*
X174438338Y-90684106D01*
X174287576Y-90760924D01*
X174150683Y-90860384D01*
X174150682Y-90860384D01*
X174031038Y-90980028D01*
X174031038Y-90980029D01*
X173931578Y-91116922D01*
X173854760Y-91267686D01*
X173802469Y-91428619D01*
X173776000Y-91595736D01*
X168176000Y-91595736D01*
X168149530Y-91428619D01*
X168097239Y-91267686D01*
X168020421Y-91116922D01*
X167920961Y-90980029D01*
X167920961Y-90980028D01*
X167801317Y-90860384D01*
X167664423Y-90760924D01*
X167513661Y-90684106D01*
X167352726Y-90631815D01*
X167351000Y-90631540D01*
X167351000Y-91565289D01*
X167334134Y-91524571D01*
X167256775Y-91447212D01*
X167155701Y-91405346D01*
X167046299Y-91405346D01*
X166945225Y-91447212D01*
X166867866Y-91524571D01*
X166851000Y-91565289D01*
X166851000Y-90631541D01*
X166850999Y-90631540D01*
X166849273Y-90631815D01*
X166688338Y-90684106D01*
X166537576Y-90760924D01*
X166400683Y-90860384D01*
X166400682Y-90860384D01*
X166281038Y-90980028D01*
X166281038Y-90980029D01*
X166181578Y-91116922D01*
X166104760Y-91267686D01*
X166052469Y-91428619D01*
X166026000Y-91595736D01*
X144000500Y-91595736D01*
X144000500Y-90628190D01*
X160651000Y-90628190D01*
X160657401Y-90687718D01*
X160657403Y-90687725D01*
X160707645Y-90822432D01*
X160707649Y-90822439D01*
X160793809Y-90937533D01*
X160793812Y-90937536D01*
X160908906Y-91023696D01*
X160908913Y-91023700D01*
X161043620Y-91073942D01*
X161043627Y-91073944D01*
X161103155Y-91080345D01*
X161103172Y-91080346D01*
X161326000Y-91080346D01*
X161326000Y-90405346D01*
X160651000Y-90405346D01*
X160651000Y-90628190D01*
X144000500Y-90628190D01*
X144000500Y-90105618D01*
X161326000Y-90105618D01*
X161326000Y-90205074D01*
X161364060Y-90296960D01*
X161434386Y-90367286D01*
X161526272Y-90405346D01*
X161625728Y-90405346D01*
X161717614Y-90367286D01*
X161787940Y-90296960D01*
X161826000Y-90205074D01*
X161826000Y-91080346D01*
X162048828Y-91080346D01*
X162048844Y-91080345D01*
X162108372Y-91073944D01*
X162108379Y-91073942D01*
X162243086Y-91023700D01*
X162243088Y-91023698D01*
X162358186Y-90937536D01*
X162358188Y-90937534D01*
X162367268Y-90925406D01*
X162423201Y-90883534D01*
X162490728Y-90878098D01*
X162504542Y-90880846D01*
X162504545Y-90880846D01*
X162647457Y-90880846D01*
X162750323Y-90860384D01*
X162787620Y-90852965D01*
X162919653Y-90798275D01*
X163007109Y-90739839D01*
X163073786Y-90718961D01*
X163141167Y-90737445D01*
X163144891Y-90739839D01*
X163232340Y-90798271D01*
X163232346Y-90798274D01*
X163232347Y-90798275D01*
X163364380Y-90852965D01*
X163364384Y-90852965D01*
X163364385Y-90852966D01*
X163504542Y-90880846D01*
X163504545Y-90880846D01*
X163647457Y-90880846D01*
X163750323Y-90860384D01*
X163787620Y-90852965D01*
X163919653Y-90798275D01*
X164007109Y-90739839D01*
X164073786Y-90718961D01*
X164141167Y-90737445D01*
X164144891Y-90739839D01*
X164232340Y-90798271D01*
X164232346Y-90798274D01*
X164232347Y-90798275D01*
X164364380Y-90852965D01*
X164364384Y-90852965D01*
X164364385Y-90852966D01*
X164504542Y-90880846D01*
X164504545Y-90880846D01*
X164647457Y-90880846D01*
X164750323Y-90860384D01*
X164787620Y-90852965D01*
X164919653Y-90798275D01*
X165038479Y-90718878D01*
X165139532Y-90617825D01*
X165218929Y-90498999D01*
X165273619Y-90366966D01*
X165301500Y-90226801D01*
X165301500Y-90083891D01*
X165301500Y-90083888D01*
X165273620Y-89943731D01*
X165273619Y-89943730D01*
X165273619Y-89943726D01*
X165218929Y-89811693D01*
X165218928Y-89811692D01*
X165218925Y-89811686D01*
X165139532Y-89692867D01*
X165139529Y-89692863D01*
X165038482Y-89591816D01*
X165038478Y-89591813D01*
X164919659Y-89512420D01*
X164919650Y-89512415D01*
X164787620Y-89457727D01*
X164787614Y-89457725D01*
X164647457Y-89429846D01*
X164647455Y-89429846D01*
X164504545Y-89429846D01*
X164504543Y-89429846D01*
X164364385Y-89457725D01*
X164364379Y-89457727D01*
X164232349Y-89512415D01*
X164232342Y-89512419D01*
X164144890Y-89570853D01*
X164078213Y-89591730D01*
X164010833Y-89573245D01*
X164007110Y-89570853D01*
X163919657Y-89512419D01*
X163919650Y-89512415D01*
X163787620Y-89457727D01*
X163787614Y-89457725D01*
X163647457Y-89429846D01*
X163647455Y-89429846D01*
X163504545Y-89429846D01*
X163504543Y-89429846D01*
X163364385Y-89457725D01*
X163364379Y-89457727D01*
X163232349Y-89512415D01*
X163232342Y-89512419D01*
X163144890Y-89570853D01*
X163078213Y-89591730D01*
X163010833Y-89573245D01*
X163007110Y-89570853D01*
X162919657Y-89512419D01*
X162919650Y-89512415D01*
X162787620Y-89457727D01*
X162787614Y-89457725D01*
X162647457Y-89429846D01*
X162647455Y-89429846D01*
X162504545Y-89429846D01*
X162490721Y-89432595D01*
X162421130Y-89426363D01*
X162367268Y-89385285D01*
X162358191Y-89373160D01*
X162358185Y-89373154D01*
X162243093Y-89286995D01*
X162243086Y-89286991D01*
X162108379Y-89236749D01*
X162108372Y-89236747D01*
X162048844Y-89230346D01*
X161826000Y-89230346D01*
X161826000Y-90105618D01*
X161787940Y-90013732D01*
X161717614Y-89943406D01*
X161625728Y-89905346D01*
X161526272Y-89905346D01*
X161434386Y-89943406D01*
X161364060Y-90013732D01*
X161326000Y-90105618D01*
X144000500Y-90105618D01*
X144000500Y-89139341D01*
X150325499Y-89139341D01*
X150352418Y-89274668D01*
X150352421Y-89274678D01*
X150405221Y-89402150D01*
X150405228Y-89402163D01*
X150481885Y-89516887D01*
X150481888Y-89516891D01*
X150579454Y-89614457D01*
X150579458Y-89614460D01*
X150694182Y-89691117D01*
X150694195Y-89691124D01*
X150821667Y-89743924D01*
X150821672Y-89743926D01*
X150821676Y-89743926D01*
X150821677Y-89743927D01*
X150957004Y-89770846D01*
X150957007Y-89770846D01*
X151094995Y-89770846D01*
X151186041Y-89752735D01*
X151230328Y-89743926D01*
X151353596Y-89692867D01*
X151357804Y-89691124D01*
X151357804Y-89691123D01*
X151357811Y-89691121D01*
X151472542Y-89614460D01*
X151570114Y-89516888D01*
X151646775Y-89402157D01*
X151699580Y-89274674D01*
X151726500Y-89139341D01*
X153325499Y-89139341D01*
X153352418Y-89274668D01*
X153352421Y-89274678D01*
X153405221Y-89402150D01*
X153405228Y-89402163D01*
X153481885Y-89516887D01*
X153481888Y-89516891D01*
X153579454Y-89614457D01*
X153579458Y-89614460D01*
X153694182Y-89691117D01*
X153694195Y-89691124D01*
X153821667Y-89743924D01*
X153821672Y-89743926D01*
X153821676Y-89743926D01*
X153821677Y-89743927D01*
X153957004Y-89770846D01*
X153957007Y-89770846D01*
X154094995Y-89770846D01*
X154186041Y-89752735D01*
X154230328Y-89743926D01*
X154353596Y-89692867D01*
X154357804Y-89691124D01*
X154357804Y-89691123D01*
X154357811Y-89691121D01*
X154370712Y-89682501D01*
X160651000Y-89682501D01*
X160651000Y-89905346D01*
X161326000Y-89905346D01*
X161326000Y-89230346D01*
X161103155Y-89230346D01*
X161043627Y-89236747D01*
X161043620Y-89236749D01*
X160908913Y-89286991D01*
X160908906Y-89286995D01*
X160793812Y-89373155D01*
X160793809Y-89373158D01*
X160707649Y-89488252D01*
X160707645Y-89488259D01*
X160657403Y-89622966D01*
X160657401Y-89622973D01*
X160651000Y-89682501D01*
X154370712Y-89682501D01*
X154472542Y-89614460D01*
X154472545Y-89614457D01*
X154495487Y-89591516D01*
X154570111Y-89516891D01*
X154570114Y-89516888D01*
X154646775Y-89402157D01*
X154699580Y-89274674D01*
X154726500Y-89139339D01*
X154726500Y-89001353D01*
X154726500Y-89001350D01*
X154699581Y-88866023D01*
X154699580Y-88866022D01*
X154699580Y-88866018D01*
X154699578Y-88866013D01*
X154646778Y-88738541D01*
X154646771Y-88738528D01*
X154570114Y-88623804D01*
X154570111Y-88623800D01*
X154472545Y-88526234D01*
X154472541Y-88526231D01*
X154357817Y-88449574D01*
X154357804Y-88449567D01*
X154230332Y-88396767D01*
X154230322Y-88396764D01*
X154094995Y-88369846D01*
X154094993Y-88369846D01*
X153957007Y-88369846D01*
X153957005Y-88369846D01*
X153821677Y-88396764D01*
X153821667Y-88396767D01*
X153694195Y-88449567D01*
X153694182Y-88449574D01*
X153579458Y-88526231D01*
X153579454Y-88526234D01*
X153481888Y-88623800D01*
X153481885Y-88623804D01*
X153405228Y-88738528D01*
X153405221Y-88738541D01*
X153352421Y-88866013D01*
X153352418Y-88866023D01*
X153325500Y-89001350D01*
X153325500Y-89001353D01*
X153325500Y-89139339D01*
X153325500Y-89139341D01*
X153325499Y-89139341D01*
X151726500Y-89139341D01*
X151726500Y-89139339D01*
X151726500Y-89001353D01*
X151726500Y-89001350D01*
X151699581Y-88866023D01*
X151699580Y-88866022D01*
X151699580Y-88866018D01*
X151699578Y-88866013D01*
X151646778Y-88738541D01*
X151646771Y-88738528D01*
X151570114Y-88623804D01*
X151570111Y-88623800D01*
X151472545Y-88526234D01*
X151472541Y-88526231D01*
X151357817Y-88449574D01*
X151357804Y-88449567D01*
X151230332Y-88396767D01*
X151230322Y-88396764D01*
X151094995Y-88369846D01*
X151094993Y-88369846D01*
X150957007Y-88369846D01*
X150957005Y-88369846D01*
X150821677Y-88396764D01*
X150821667Y-88396767D01*
X150694195Y-88449567D01*
X150694182Y-88449574D01*
X150579458Y-88526231D01*
X150579454Y-88526234D01*
X150481888Y-88623800D01*
X150481885Y-88623804D01*
X150405228Y-88738528D01*
X150405221Y-88738541D01*
X150352421Y-88866013D01*
X150352418Y-88866023D01*
X150325500Y-89001350D01*
X150325500Y-89001353D01*
X150325500Y-89139339D01*
X150325500Y-89139341D01*
X150325499Y-89139341D01*
X144000500Y-89139341D01*
X144000500Y-87599500D01*
X144020185Y-87532461D01*
X144072989Y-87486706D01*
X144124500Y-87475500D01*
X176575500Y-87475500D01*
X176642539Y-87495185D01*
G37*
%TD.AperFunction*%
%TD*%
M02*
