%TF.GenerationSoftware,KiCad,Pcbnew,9.0.7*%
%TF.CreationDate,2026-09-26T10:30:24+07:00*%
%TF.ProjectId,stm32f103_Muhammad Refansa Annaafi,73746d33-3266-4313-9033-5f4d7568616d,rev?*%
%TF.SameCoordinates,Original*%
%TF.FileFunction,Legend,Top*%
%TF.FilePolarity,Positive*%
%FSLAX46Y46*%
G04 Gerber Fmt 4.6, Leading zero omitted, Abs format (unit mm)*
G04 Created by KiCad (PCBNEW 9.0.7) date 2026-09-26 10:30:24*
%MOMM*%
%LPD*%
G01*
G04 APERTURE LIST*
%ADD10C,0.100000*%
%ADD11C,0.150000*%
%ADD12C,0.120000*%
G04 APERTURE END LIST*
D10*
X177802657Y-100251189D02*
X177755038Y-100203570D01*
X177755038Y-100203570D02*
X177707419Y-100108332D01*
X177707419Y-100108332D02*
X177707419Y-99870237D01*
X177707419Y-99870237D02*
X177755038Y-99774999D01*
X177755038Y-99774999D02*
X177802657Y-99727380D01*
X177802657Y-99727380D02*
X177897895Y-99679761D01*
X177897895Y-99679761D02*
X177993133Y-99679761D01*
X177993133Y-99679761D02*
X178135990Y-99727380D01*
X178135990Y-99727380D02*
X178707419Y-100298808D01*
X178707419Y-100298808D02*
X178707419Y-99679761D01*
X178040752Y-98822618D02*
X178707419Y-98822618D01*
X177659800Y-99060713D02*
X178374085Y-99298808D01*
X178374085Y-99298808D02*
X178374085Y-98679761D01*
X178612180Y-98298808D02*
X178659800Y-98251189D01*
X178659800Y-98251189D02*
X178707419Y-98298808D01*
X178707419Y-98298808D02*
X178659800Y-98346427D01*
X178659800Y-98346427D02*
X178612180Y-98298808D01*
X178612180Y-98298808D02*
X178707419Y-98298808D01*
X177802657Y-97870237D02*
X177755038Y-97822618D01*
X177755038Y-97822618D02*
X177707419Y-97727380D01*
X177707419Y-97727380D02*
X177707419Y-97489285D01*
X177707419Y-97489285D02*
X177755038Y-97394047D01*
X177755038Y-97394047D02*
X177802657Y-97346428D01*
X177802657Y-97346428D02*
X177897895Y-97298809D01*
X177897895Y-97298809D02*
X177993133Y-97298809D01*
X177993133Y-97298809D02*
X178135990Y-97346428D01*
X178135990Y-97346428D02*
X178707419Y-97917856D01*
X178707419Y-97917856D02*
X178707419Y-97298809D01*
X179350000Y-86675000D02*
X179350000Y-86675000D01*
X179936420Y-110875000D02*
X179550000Y-110875000D01*
X179350000Y-86675000D02*
X179350000Y-110875000D01*
X179350000Y-86675000D02*
X179936421Y-87801504D01*
X179350000Y-86675000D02*
X178763579Y-87801504D01*
X179350000Y-110875000D02*
X178763579Y-109748496D01*
X179350000Y-110875000D02*
X179936421Y-109748496D01*
X158776191Y-113632419D02*
X159395238Y-113632419D01*
X159395238Y-113632419D02*
X159061905Y-114013371D01*
X159061905Y-114013371D02*
X159204762Y-114013371D01*
X159204762Y-114013371D02*
X159300000Y-114060990D01*
X159300000Y-114060990D02*
X159347619Y-114108609D01*
X159347619Y-114108609D02*
X159395238Y-114203847D01*
X159395238Y-114203847D02*
X159395238Y-114441942D01*
X159395238Y-114441942D02*
X159347619Y-114537180D01*
X159347619Y-114537180D02*
X159300000Y-114584800D01*
X159300000Y-114584800D02*
X159204762Y-114632419D01*
X159204762Y-114632419D02*
X158919048Y-114632419D01*
X158919048Y-114632419D02*
X158823810Y-114584800D01*
X158823810Y-114584800D02*
X158776191Y-114537180D01*
X159728572Y-113632419D02*
X160347619Y-113632419D01*
X160347619Y-113632419D02*
X160014286Y-114013371D01*
X160014286Y-114013371D02*
X160157143Y-114013371D01*
X160157143Y-114013371D02*
X160252381Y-114060990D01*
X160252381Y-114060990D02*
X160300000Y-114108609D01*
X160300000Y-114108609D02*
X160347619Y-114203847D01*
X160347619Y-114203847D02*
X160347619Y-114441942D01*
X160347619Y-114441942D02*
X160300000Y-114537180D01*
X160300000Y-114537180D02*
X160252381Y-114584800D01*
X160252381Y-114584800D02*
X160157143Y-114632419D01*
X160157143Y-114632419D02*
X159871429Y-114632419D01*
X159871429Y-114632419D02*
X159776191Y-114584800D01*
X159776191Y-114584800D02*
X159728572Y-114537180D01*
X160776191Y-114537180D02*
X160823810Y-114584800D01*
X160823810Y-114584800D02*
X160776191Y-114632419D01*
X160776191Y-114632419D02*
X160728572Y-114584800D01*
X160728572Y-114584800D02*
X160776191Y-114537180D01*
X160776191Y-114537180D02*
X160776191Y-114632419D01*
X161728571Y-113632419D02*
X161252381Y-113632419D01*
X161252381Y-113632419D02*
X161204762Y-114108609D01*
X161204762Y-114108609D02*
X161252381Y-114060990D01*
X161252381Y-114060990D02*
X161347619Y-114013371D01*
X161347619Y-114013371D02*
X161585714Y-114013371D01*
X161585714Y-114013371D02*
X161680952Y-114060990D01*
X161680952Y-114060990D02*
X161728571Y-114108609D01*
X161728571Y-114108609D02*
X161776190Y-114203847D01*
X161776190Y-114203847D02*
X161776190Y-114441942D01*
X161776190Y-114441942D02*
X161728571Y-114537180D01*
X161728571Y-114537180D02*
X161680952Y-114584800D01*
X161680952Y-114584800D02*
X161585714Y-114632419D01*
X161585714Y-114632419D02*
X161347619Y-114632419D01*
X161347619Y-114632419D02*
X161252381Y-114584800D01*
X161252381Y-114584800D02*
X161204762Y-114537180D01*
X143550000Y-115150000D02*
X143550000Y-115861420D01*
X177050000Y-115861420D02*
X177050000Y-115550000D01*
X143550000Y-115275000D02*
X177050000Y-115275000D01*
X143550000Y-115275000D02*
X144676504Y-114688579D01*
X143550000Y-115275000D02*
X144676504Y-115861421D01*
X177050000Y-115275000D02*
X175923496Y-115861421D01*
X177050000Y-115275000D02*
X175923496Y-114688579D01*
D11*
X174568319Y-106592250D02*
X175377842Y-106592250D01*
X175377842Y-106592250D02*
X175473080Y-106544631D01*
X175473080Y-106544631D02*
X175520700Y-106497012D01*
X175520700Y-106497012D02*
X175568319Y-106401774D01*
X175568319Y-106401774D02*
X175568319Y-106211298D01*
X175568319Y-106211298D02*
X175520700Y-106116060D01*
X175520700Y-106116060D02*
X175473080Y-106068441D01*
X175473080Y-106068441D02*
X175377842Y-106020822D01*
X175377842Y-106020822D02*
X174568319Y-106020822D01*
X174663557Y-105592250D02*
X174615938Y-105544631D01*
X174615938Y-105544631D02*
X174568319Y-105449393D01*
X174568319Y-105449393D02*
X174568319Y-105211298D01*
X174568319Y-105211298D02*
X174615938Y-105116060D01*
X174615938Y-105116060D02*
X174663557Y-105068441D01*
X174663557Y-105068441D02*
X174758795Y-105020822D01*
X174758795Y-105020822D02*
X174854033Y-105020822D01*
X174854033Y-105020822D02*
X174996890Y-105068441D01*
X174996890Y-105068441D02*
X175568319Y-105639869D01*
X175568319Y-105639869D02*
X175568319Y-105020822D01*
D10*
X153134333Y-103867526D02*
X153086714Y-103915146D01*
X153086714Y-103915146D02*
X152943857Y-103962765D01*
X152943857Y-103962765D02*
X152848619Y-103962765D01*
X152848619Y-103962765D02*
X152705762Y-103915146D01*
X152705762Y-103915146D02*
X152610524Y-103819907D01*
X152610524Y-103819907D02*
X152562905Y-103724669D01*
X152562905Y-103724669D02*
X152515286Y-103534193D01*
X152515286Y-103534193D02*
X152515286Y-103391336D01*
X152515286Y-103391336D02*
X152562905Y-103200860D01*
X152562905Y-103200860D02*
X152610524Y-103105622D01*
X152610524Y-103105622D02*
X152705762Y-103010384D01*
X152705762Y-103010384D02*
X152848619Y-102962765D01*
X152848619Y-102962765D02*
X152943857Y-102962765D01*
X152943857Y-102962765D02*
X153086714Y-103010384D01*
X153086714Y-103010384D02*
X153134333Y-103058003D01*
X153467667Y-102962765D02*
X154134333Y-102962765D01*
X154134333Y-102962765D02*
X153705762Y-103962765D01*
X146235800Y-105513678D02*
X146283419Y-105370821D01*
X146283419Y-105370821D02*
X146283419Y-105132726D01*
X146283419Y-105132726D02*
X146235800Y-105037488D01*
X146235800Y-105037488D02*
X146188180Y-104989869D01*
X146188180Y-104989869D02*
X146092942Y-104942250D01*
X146092942Y-104942250D02*
X145997704Y-104942250D01*
X145997704Y-104942250D02*
X145902466Y-104989869D01*
X145902466Y-104989869D02*
X145854847Y-105037488D01*
X145854847Y-105037488D02*
X145807228Y-105132726D01*
X145807228Y-105132726D02*
X145759609Y-105323202D01*
X145759609Y-105323202D02*
X145711990Y-105418440D01*
X145711990Y-105418440D02*
X145664371Y-105466059D01*
X145664371Y-105466059D02*
X145569133Y-105513678D01*
X145569133Y-105513678D02*
X145473895Y-105513678D01*
X145473895Y-105513678D02*
X145378657Y-105466059D01*
X145378657Y-105466059D02*
X145331038Y-105418440D01*
X145331038Y-105418440D02*
X145283419Y-105323202D01*
X145283419Y-105323202D02*
X145283419Y-105085107D01*
X145283419Y-105085107D02*
X145331038Y-104942250D01*
X145283419Y-104608916D02*
X146283419Y-104370821D01*
X146283419Y-104370821D02*
X145569133Y-104180345D01*
X145569133Y-104180345D02*
X146283419Y-103989869D01*
X146283419Y-103989869D02*
X145283419Y-103751774D01*
X146283419Y-102847012D02*
X146283419Y-103418440D01*
X146283419Y-103132726D02*
X145283419Y-103132726D01*
X145283419Y-103132726D02*
X145426276Y-103227964D01*
X145426276Y-103227964D02*
X145521514Y-103323202D01*
X145521514Y-103323202D02*
X145569133Y-103418440D01*
X150384333Y-93317526D02*
X150336714Y-93365146D01*
X150336714Y-93365146D02*
X150193857Y-93412765D01*
X150193857Y-93412765D02*
X150098619Y-93412765D01*
X150098619Y-93412765D02*
X149955762Y-93365146D01*
X149955762Y-93365146D02*
X149860524Y-93269907D01*
X149860524Y-93269907D02*
X149812905Y-93174669D01*
X149812905Y-93174669D02*
X149765286Y-92984193D01*
X149765286Y-92984193D02*
X149765286Y-92841336D01*
X149765286Y-92841336D02*
X149812905Y-92650860D01*
X149812905Y-92650860D02*
X149860524Y-92555622D01*
X149860524Y-92555622D02*
X149955762Y-92460384D01*
X149955762Y-92460384D02*
X150098619Y-92412765D01*
X150098619Y-92412765D02*
X150193857Y-92412765D01*
X150193857Y-92412765D02*
X150336714Y-92460384D01*
X150336714Y-92460384D02*
X150384333Y-92508003D01*
X150955762Y-92841336D02*
X150860524Y-92793717D01*
X150860524Y-92793717D02*
X150812905Y-92746098D01*
X150812905Y-92746098D02*
X150765286Y-92650860D01*
X150765286Y-92650860D02*
X150765286Y-92603241D01*
X150765286Y-92603241D02*
X150812905Y-92508003D01*
X150812905Y-92508003D02*
X150860524Y-92460384D01*
X150860524Y-92460384D02*
X150955762Y-92412765D01*
X150955762Y-92412765D02*
X151146238Y-92412765D01*
X151146238Y-92412765D02*
X151241476Y-92460384D01*
X151241476Y-92460384D02*
X151289095Y-92508003D01*
X151289095Y-92508003D02*
X151336714Y-92603241D01*
X151336714Y-92603241D02*
X151336714Y-92650860D01*
X151336714Y-92650860D02*
X151289095Y-92746098D01*
X151289095Y-92746098D02*
X151241476Y-92793717D01*
X151241476Y-92793717D02*
X151146238Y-92841336D01*
X151146238Y-92841336D02*
X150955762Y-92841336D01*
X150955762Y-92841336D02*
X150860524Y-92888955D01*
X150860524Y-92888955D02*
X150812905Y-92936574D01*
X150812905Y-92936574D02*
X150765286Y-93031812D01*
X150765286Y-93031812D02*
X150765286Y-93222288D01*
X150765286Y-93222288D02*
X150812905Y-93317526D01*
X150812905Y-93317526D02*
X150860524Y-93365146D01*
X150860524Y-93365146D02*
X150955762Y-93412765D01*
X150955762Y-93412765D02*
X151146238Y-93412765D01*
X151146238Y-93412765D02*
X151241476Y-93365146D01*
X151241476Y-93365146D02*
X151289095Y-93317526D01*
X151289095Y-93317526D02*
X151336714Y-93222288D01*
X151336714Y-93222288D02*
X151336714Y-93031812D01*
X151336714Y-93031812D02*
X151289095Y-92936574D01*
X151289095Y-92936574D02*
X151241476Y-92888955D01*
X151241476Y-92888955D02*
X151146238Y-92841336D01*
X158509333Y-90587765D02*
X158176000Y-90111574D01*
X157937905Y-90587765D02*
X157937905Y-89587765D01*
X157937905Y-89587765D02*
X158318857Y-89587765D01*
X158318857Y-89587765D02*
X158414095Y-89635384D01*
X158414095Y-89635384D02*
X158461714Y-89683003D01*
X158461714Y-89683003D02*
X158509333Y-89778241D01*
X158509333Y-89778241D02*
X158509333Y-89921098D01*
X158509333Y-89921098D02*
X158461714Y-90016336D01*
X158461714Y-90016336D02*
X158414095Y-90063955D01*
X158414095Y-90063955D02*
X158318857Y-90111574D01*
X158318857Y-90111574D02*
X157937905Y-90111574D01*
X159461714Y-90587765D02*
X158890286Y-90587765D01*
X159176000Y-90587765D02*
X159176000Y-89587765D01*
X159176000Y-89587765D02*
X159080762Y-89730622D01*
X159080762Y-89730622D02*
X158985524Y-89825860D01*
X158985524Y-89825860D02*
X158890286Y-89873479D01*
X161334333Y-105187765D02*
X161001000Y-104711574D01*
X160762905Y-105187765D02*
X160762905Y-104187765D01*
X160762905Y-104187765D02*
X161143857Y-104187765D01*
X161143857Y-104187765D02*
X161239095Y-104235384D01*
X161239095Y-104235384D02*
X161286714Y-104283003D01*
X161286714Y-104283003D02*
X161334333Y-104378241D01*
X161334333Y-104378241D02*
X161334333Y-104521098D01*
X161334333Y-104521098D02*
X161286714Y-104616336D01*
X161286714Y-104616336D02*
X161239095Y-104663955D01*
X161239095Y-104663955D02*
X161143857Y-104711574D01*
X161143857Y-104711574D02*
X160762905Y-104711574D01*
X162239095Y-104187765D02*
X161762905Y-104187765D01*
X161762905Y-104187765D02*
X161715286Y-104663955D01*
X161715286Y-104663955D02*
X161762905Y-104616336D01*
X161762905Y-104616336D02*
X161858143Y-104568717D01*
X161858143Y-104568717D02*
X162096238Y-104568717D01*
X162096238Y-104568717D02*
X162191476Y-104616336D01*
X162191476Y-104616336D02*
X162239095Y-104663955D01*
X162239095Y-104663955D02*
X162286714Y-104759193D01*
X162286714Y-104759193D02*
X162286714Y-104997288D01*
X162286714Y-104997288D02*
X162239095Y-105092526D01*
X162239095Y-105092526D02*
X162191476Y-105140146D01*
X162191476Y-105140146D02*
X162096238Y-105187765D01*
X162096238Y-105187765D02*
X161858143Y-105187765D01*
X161858143Y-105187765D02*
X161762905Y-105140146D01*
X161762905Y-105140146D02*
X161715286Y-105092526D01*
X165508419Y-101116666D02*
X165032228Y-101449999D01*
X165508419Y-101688094D02*
X164508419Y-101688094D01*
X164508419Y-101688094D02*
X164508419Y-101307142D01*
X164508419Y-101307142D02*
X164556038Y-101211904D01*
X164556038Y-101211904D02*
X164603657Y-101164285D01*
X164603657Y-101164285D02*
X164698895Y-101116666D01*
X164698895Y-101116666D02*
X164841752Y-101116666D01*
X164841752Y-101116666D02*
X164936990Y-101164285D01*
X164936990Y-101164285D02*
X164984609Y-101211904D01*
X164984609Y-101211904D02*
X165032228Y-101307142D01*
X165032228Y-101307142D02*
X165032228Y-101688094D01*
X164508419Y-100783332D02*
X164508419Y-100164285D01*
X164508419Y-100164285D02*
X164889371Y-100497618D01*
X164889371Y-100497618D02*
X164889371Y-100354761D01*
X164889371Y-100354761D02*
X164936990Y-100259523D01*
X164936990Y-100259523D02*
X164984609Y-100211904D01*
X164984609Y-100211904D02*
X165079847Y-100164285D01*
X165079847Y-100164285D02*
X165317942Y-100164285D01*
X165317942Y-100164285D02*
X165413180Y-100211904D01*
X165413180Y-100211904D02*
X165460800Y-100259523D01*
X165460800Y-100259523D02*
X165508419Y-100354761D01*
X165508419Y-100354761D02*
X165508419Y-100640475D01*
X165508419Y-100640475D02*
X165460800Y-100735713D01*
X165460800Y-100735713D02*
X165413180Y-100783332D01*
X158959333Y-93342526D02*
X158911714Y-93390146D01*
X158911714Y-93390146D02*
X158768857Y-93437765D01*
X158768857Y-93437765D02*
X158673619Y-93437765D01*
X158673619Y-93437765D02*
X158530762Y-93390146D01*
X158530762Y-93390146D02*
X158435524Y-93294907D01*
X158435524Y-93294907D02*
X158387905Y-93199669D01*
X158387905Y-93199669D02*
X158340286Y-93009193D01*
X158340286Y-93009193D02*
X158340286Y-92866336D01*
X158340286Y-92866336D02*
X158387905Y-92675860D01*
X158387905Y-92675860D02*
X158435524Y-92580622D01*
X158435524Y-92580622D02*
X158530762Y-92485384D01*
X158530762Y-92485384D02*
X158673619Y-92437765D01*
X158673619Y-92437765D02*
X158768857Y-92437765D01*
X158768857Y-92437765D02*
X158911714Y-92485384D01*
X158911714Y-92485384D02*
X158959333Y-92533003D01*
X159911714Y-93437765D02*
X159340286Y-93437765D01*
X159626000Y-93437765D02*
X159626000Y-92437765D01*
X159626000Y-92437765D02*
X159530762Y-92580622D01*
X159530762Y-92580622D02*
X159435524Y-92675860D01*
X159435524Y-92675860D02*
X159340286Y-92723479D01*
X163708333Y-107187180D02*
X163660714Y-107234800D01*
X163660714Y-107234800D02*
X163517857Y-107282419D01*
X163517857Y-107282419D02*
X163422619Y-107282419D01*
X163422619Y-107282419D02*
X163279762Y-107234800D01*
X163279762Y-107234800D02*
X163184524Y-107139561D01*
X163184524Y-107139561D02*
X163136905Y-107044323D01*
X163136905Y-107044323D02*
X163089286Y-106853847D01*
X163089286Y-106853847D02*
X163089286Y-106710990D01*
X163089286Y-106710990D02*
X163136905Y-106520514D01*
X163136905Y-106520514D02*
X163184524Y-106425276D01*
X163184524Y-106425276D02*
X163279762Y-106330038D01*
X163279762Y-106330038D02*
X163422619Y-106282419D01*
X163422619Y-106282419D02*
X163517857Y-106282419D01*
X163517857Y-106282419D02*
X163660714Y-106330038D01*
X163660714Y-106330038D02*
X163708333Y-106377657D01*
X164041667Y-106282419D02*
X164660714Y-106282419D01*
X164660714Y-106282419D02*
X164327381Y-106663371D01*
X164327381Y-106663371D02*
X164470238Y-106663371D01*
X164470238Y-106663371D02*
X164565476Y-106710990D01*
X164565476Y-106710990D02*
X164613095Y-106758609D01*
X164613095Y-106758609D02*
X164660714Y-106853847D01*
X164660714Y-106853847D02*
X164660714Y-107091942D01*
X164660714Y-107091942D02*
X164613095Y-107187180D01*
X164613095Y-107187180D02*
X164565476Y-107234800D01*
X164565476Y-107234800D02*
X164470238Y-107282419D01*
X164470238Y-107282419D02*
X164184524Y-107282419D01*
X164184524Y-107282419D02*
X164089286Y-107234800D01*
X164089286Y-107234800D02*
X164041667Y-107187180D01*
X148823809Y-94656228D02*
X148823809Y-95132419D01*
X148490476Y-94132419D02*
X148823809Y-94656228D01*
X148823809Y-94656228D02*
X149157142Y-94132419D01*
X150014285Y-95132419D02*
X149442857Y-95132419D01*
X149728571Y-95132419D02*
X149728571Y-94132419D01*
X149728571Y-94132419D02*
X149633333Y-94275276D01*
X149633333Y-94275276D02*
X149538095Y-94370514D01*
X149538095Y-94370514D02*
X149442857Y-94418133D01*
D11*
X163092666Y-87535165D02*
X163092666Y-88249450D01*
X163092666Y-88249450D02*
X163045047Y-88392307D01*
X163045047Y-88392307D02*
X162949809Y-88487546D01*
X162949809Y-88487546D02*
X162806952Y-88535165D01*
X162806952Y-88535165D02*
X162711714Y-88535165D01*
X164092666Y-88535165D02*
X163521238Y-88535165D01*
X163806952Y-88535165D02*
X163806952Y-87535165D01*
X163806952Y-87535165D02*
X163711714Y-87678022D01*
X163711714Y-87678022D02*
X163616476Y-87773260D01*
X163616476Y-87773260D02*
X163521238Y-87820879D01*
D10*
X175700680Y-101998203D02*
X175748300Y-102045822D01*
X175748300Y-102045822D02*
X175795919Y-102188679D01*
X175795919Y-102188679D02*
X175795919Y-102283917D01*
X175795919Y-102283917D02*
X175748300Y-102426774D01*
X175748300Y-102426774D02*
X175653061Y-102522012D01*
X175653061Y-102522012D02*
X175557823Y-102569631D01*
X175557823Y-102569631D02*
X175367347Y-102617250D01*
X175367347Y-102617250D02*
X175224490Y-102617250D01*
X175224490Y-102617250D02*
X175034014Y-102569631D01*
X175034014Y-102569631D02*
X174938776Y-102522012D01*
X174938776Y-102522012D02*
X174843538Y-102426774D01*
X174843538Y-102426774D02*
X174795919Y-102283917D01*
X174795919Y-102283917D02*
X174795919Y-102188679D01*
X174795919Y-102188679D02*
X174843538Y-102045822D01*
X174843538Y-102045822D02*
X174891157Y-101998203D01*
X175795919Y-101045822D02*
X175795919Y-101617250D01*
X175795919Y-101331536D02*
X174795919Y-101331536D01*
X174795919Y-101331536D02*
X174938776Y-101426774D01*
X174938776Y-101426774D02*
X175034014Y-101522012D01*
X175034014Y-101522012D02*
X175081633Y-101617250D01*
X174891157Y-100664869D02*
X174843538Y-100617250D01*
X174843538Y-100617250D02*
X174795919Y-100522012D01*
X174795919Y-100522012D02*
X174795919Y-100283917D01*
X174795919Y-100283917D02*
X174843538Y-100188679D01*
X174843538Y-100188679D02*
X174891157Y-100141060D01*
X174891157Y-100141060D02*
X174986395Y-100093441D01*
X174986395Y-100093441D02*
X175081633Y-100093441D01*
X175081633Y-100093441D02*
X175224490Y-100141060D01*
X175224490Y-100141060D02*
X175795919Y-100712488D01*
X175795919Y-100712488D02*
X175795919Y-100093441D01*
X145259333Y-96417526D02*
X145211714Y-96465146D01*
X145211714Y-96465146D02*
X145068857Y-96512765D01*
X145068857Y-96512765D02*
X144973619Y-96512765D01*
X144973619Y-96512765D02*
X144830762Y-96465146D01*
X144830762Y-96465146D02*
X144735524Y-96369907D01*
X144735524Y-96369907D02*
X144687905Y-96274669D01*
X144687905Y-96274669D02*
X144640286Y-96084193D01*
X144640286Y-96084193D02*
X144640286Y-95941336D01*
X144640286Y-95941336D02*
X144687905Y-95750860D01*
X144687905Y-95750860D02*
X144735524Y-95655622D01*
X144735524Y-95655622D02*
X144830762Y-95560384D01*
X144830762Y-95560384D02*
X144973619Y-95512765D01*
X144973619Y-95512765D02*
X145068857Y-95512765D01*
X145068857Y-95512765D02*
X145211714Y-95560384D01*
X145211714Y-95560384D02*
X145259333Y-95608003D01*
X145735524Y-96512765D02*
X145926000Y-96512765D01*
X145926000Y-96512765D02*
X146021238Y-96465146D01*
X146021238Y-96465146D02*
X146068857Y-96417526D01*
X146068857Y-96417526D02*
X146164095Y-96274669D01*
X146164095Y-96274669D02*
X146211714Y-96084193D01*
X146211714Y-96084193D02*
X146211714Y-95703241D01*
X146211714Y-95703241D02*
X146164095Y-95608003D01*
X146164095Y-95608003D02*
X146116476Y-95560384D01*
X146116476Y-95560384D02*
X146021238Y-95512765D01*
X146021238Y-95512765D02*
X145830762Y-95512765D01*
X145830762Y-95512765D02*
X145735524Y-95560384D01*
X145735524Y-95560384D02*
X145687905Y-95608003D01*
X145687905Y-95608003D02*
X145640286Y-95703241D01*
X145640286Y-95703241D02*
X145640286Y-95941336D01*
X145640286Y-95941336D02*
X145687905Y-96036574D01*
X145687905Y-96036574D02*
X145735524Y-96084193D01*
X145735524Y-96084193D02*
X145830762Y-96131812D01*
X145830762Y-96131812D02*
X146021238Y-96131812D01*
X146021238Y-96131812D02*
X146116476Y-96084193D01*
X146116476Y-96084193D02*
X146164095Y-96036574D01*
X146164095Y-96036574D02*
X146211714Y-95941336D01*
D11*
X144692667Y-90107546D02*
X144835524Y-90155165D01*
X144835524Y-90155165D02*
X145073619Y-90155165D01*
X145073619Y-90155165D02*
X145168857Y-90107546D01*
X145168857Y-90107546D02*
X145216476Y-90059926D01*
X145216476Y-90059926D02*
X145264095Y-89964688D01*
X145264095Y-89964688D02*
X145264095Y-89869450D01*
X145264095Y-89869450D02*
X145216476Y-89774212D01*
X145216476Y-89774212D02*
X145168857Y-89726593D01*
X145168857Y-89726593D02*
X145073619Y-89678974D01*
X145073619Y-89678974D02*
X144883143Y-89631355D01*
X144883143Y-89631355D02*
X144787905Y-89583736D01*
X144787905Y-89583736D02*
X144740286Y-89536117D01*
X144740286Y-89536117D02*
X144692667Y-89440879D01*
X144692667Y-89440879D02*
X144692667Y-89345641D01*
X144692667Y-89345641D02*
X144740286Y-89250403D01*
X144740286Y-89250403D02*
X144787905Y-89202784D01*
X144787905Y-89202784D02*
X144883143Y-89155165D01*
X144883143Y-89155165D02*
X145121238Y-89155165D01*
X145121238Y-89155165D02*
X145264095Y-89202784D01*
X145597429Y-89155165D02*
X145835524Y-90155165D01*
X145835524Y-90155165D02*
X146026000Y-89440879D01*
X146026000Y-89440879D02*
X146216476Y-90155165D01*
X146216476Y-90155165D02*
X146454572Y-89155165D01*
X146787905Y-89250403D02*
X146835524Y-89202784D01*
X146835524Y-89202784D02*
X146930762Y-89155165D01*
X146930762Y-89155165D02*
X147168857Y-89155165D01*
X147168857Y-89155165D02*
X147264095Y-89202784D01*
X147264095Y-89202784D02*
X147311714Y-89250403D01*
X147311714Y-89250403D02*
X147359333Y-89345641D01*
X147359333Y-89345641D02*
X147359333Y-89440879D01*
X147359333Y-89440879D02*
X147311714Y-89583736D01*
X147311714Y-89583736D02*
X146740286Y-90155165D01*
X146740286Y-90155165D02*
X147359333Y-90155165D01*
X154389095Y-102985165D02*
X154389095Y-103794688D01*
X154389095Y-103794688D02*
X154436714Y-103889926D01*
X154436714Y-103889926D02*
X154484333Y-103937546D01*
X154484333Y-103937546D02*
X154579571Y-103985165D01*
X154579571Y-103985165D02*
X154770047Y-103985165D01*
X154770047Y-103985165D02*
X154865285Y-103937546D01*
X154865285Y-103937546D02*
X154912904Y-103889926D01*
X154912904Y-103889926D02*
X154960523Y-103794688D01*
X154960523Y-103794688D02*
X154960523Y-102985165D01*
X155960523Y-103985165D02*
X155389095Y-103985165D01*
X155674809Y-103985165D02*
X155674809Y-102985165D01*
X155674809Y-102985165D02*
X155579571Y-103128022D01*
X155579571Y-103128022D02*
X155484333Y-103223260D01*
X155484333Y-103223260D02*
X155389095Y-103270879D01*
D10*
X147867666Y-103438955D02*
X147534333Y-103438955D01*
X147534333Y-103962765D02*
X147534333Y-102962765D01*
X147534333Y-102962765D02*
X148010523Y-102962765D01*
X148724809Y-103438955D02*
X148867666Y-103486574D01*
X148867666Y-103486574D02*
X148915285Y-103534193D01*
X148915285Y-103534193D02*
X148962904Y-103629431D01*
X148962904Y-103629431D02*
X148962904Y-103772288D01*
X148962904Y-103772288D02*
X148915285Y-103867526D01*
X148915285Y-103867526D02*
X148867666Y-103915146D01*
X148867666Y-103915146D02*
X148772428Y-103962765D01*
X148772428Y-103962765D02*
X148391476Y-103962765D01*
X148391476Y-103962765D02*
X148391476Y-102962765D01*
X148391476Y-102962765D02*
X148724809Y-102962765D01*
X148724809Y-102962765D02*
X148820047Y-103010384D01*
X148820047Y-103010384D02*
X148867666Y-103058003D01*
X148867666Y-103058003D02*
X148915285Y-103153241D01*
X148915285Y-103153241D02*
X148915285Y-103248479D01*
X148915285Y-103248479D02*
X148867666Y-103343717D01*
X148867666Y-103343717D02*
X148820047Y-103391336D01*
X148820047Y-103391336D02*
X148724809Y-103438955D01*
X148724809Y-103438955D02*
X148391476Y-103438955D01*
X149915285Y-103962765D02*
X149343857Y-103962765D01*
X149629571Y-103962765D02*
X149629571Y-102962765D01*
X149629571Y-102962765D02*
X149534333Y-103105622D01*
X149534333Y-103105622D02*
X149439095Y-103200860D01*
X149439095Y-103200860D02*
X149343857Y-103248479D01*
X166459333Y-99187765D02*
X166126000Y-98711574D01*
X165887905Y-99187765D02*
X165887905Y-98187765D01*
X165887905Y-98187765D02*
X166268857Y-98187765D01*
X166268857Y-98187765D02*
X166364095Y-98235384D01*
X166364095Y-98235384D02*
X166411714Y-98283003D01*
X166411714Y-98283003D02*
X166459333Y-98378241D01*
X166459333Y-98378241D02*
X166459333Y-98521098D01*
X166459333Y-98521098D02*
X166411714Y-98616336D01*
X166411714Y-98616336D02*
X166364095Y-98663955D01*
X166364095Y-98663955D02*
X166268857Y-98711574D01*
X166268857Y-98711574D02*
X165887905Y-98711574D01*
X166840286Y-98283003D02*
X166887905Y-98235384D01*
X166887905Y-98235384D02*
X166983143Y-98187765D01*
X166983143Y-98187765D02*
X167221238Y-98187765D01*
X167221238Y-98187765D02*
X167316476Y-98235384D01*
X167316476Y-98235384D02*
X167364095Y-98283003D01*
X167364095Y-98283003D02*
X167411714Y-98378241D01*
X167411714Y-98378241D02*
X167411714Y-98473479D01*
X167411714Y-98473479D02*
X167364095Y-98616336D01*
X167364095Y-98616336D02*
X166792667Y-99187765D01*
X166792667Y-99187765D02*
X167411714Y-99187765D01*
X173908142Y-99392526D02*
X173860523Y-99440146D01*
X173860523Y-99440146D02*
X173717666Y-99487765D01*
X173717666Y-99487765D02*
X173622428Y-99487765D01*
X173622428Y-99487765D02*
X173479571Y-99440146D01*
X173479571Y-99440146D02*
X173384333Y-99344907D01*
X173384333Y-99344907D02*
X173336714Y-99249669D01*
X173336714Y-99249669D02*
X173289095Y-99059193D01*
X173289095Y-99059193D02*
X173289095Y-98916336D01*
X173289095Y-98916336D02*
X173336714Y-98725860D01*
X173336714Y-98725860D02*
X173384333Y-98630622D01*
X173384333Y-98630622D02*
X173479571Y-98535384D01*
X173479571Y-98535384D02*
X173622428Y-98487765D01*
X173622428Y-98487765D02*
X173717666Y-98487765D01*
X173717666Y-98487765D02*
X173860523Y-98535384D01*
X173860523Y-98535384D02*
X173908142Y-98583003D01*
X174860523Y-99487765D02*
X174289095Y-99487765D01*
X174574809Y-99487765D02*
X174574809Y-98487765D01*
X174574809Y-98487765D02*
X174479571Y-98630622D01*
X174479571Y-98630622D02*
X174384333Y-98725860D01*
X174384333Y-98725860D02*
X174289095Y-98773479D01*
X175812904Y-99487765D02*
X175241476Y-99487765D01*
X175527190Y-99487765D02*
X175527190Y-98487765D01*
X175527190Y-98487765D02*
X175431952Y-98630622D01*
X175431952Y-98630622D02*
X175336714Y-98725860D01*
X175336714Y-98725860D02*
X175241476Y-98773479D01*
X148663180Y-101698203D02*
X148710800Y-101745822D01*
X148710800Y-101745822D02*
X148758419Y-101888679D01*
X148758419Y-101888679D02*
X148758419Y-101983917D01*
X148758419Y-101983917D02*
X148710800Y-102126774D01*
X148710800Y-102126774D02*
X148615561Y-102222012D01*
X148615561Y-102222012D02*
X148520323Y-102269631D01*
X148520323Y-102269631D02*
X148329847Y-102317250D01*
X148329847Y-102317250D02*
X148186990Y-102317250D01*
X148186990Y-102317250D02*
X147996514Y-102269631D01*
X147996514Y-102269631D02*
X147901276Y-102222012D01*
X147901276Y-102222012D02*
X147806038Y-102126774D01*
X147806038Y-102126774D02*
X147758419Y-101983917D01*
X147758419Y-101983917D02*
X147758419Y-101888679D01*
X147758419Y-101888679D02*
X147806038Y-101745822D01*
X147806038Y-101745822D02*
X147853657Y-101698203D01*
X148758419Y-100745822D02*
X148758419Y-101317250D01*
X148758419Y-101031536D02*
X147758419Y-101031536D01*
X147758419Y-101031536D02*
X147901276Y-101126774D01*
X147901276Y-101126774D02*
X147996514Y-101222012D01*
X147996514Y-101222012D02*
X148044133Y-101317250D01*
X147758419Y-100126774D02*
X147758419Y-100031536D01*
X147758419Y-100031536D02*
X147806038Y-99936298D01*
X147806038Y-99936298D02*
X147853657Y-99888679D01*
X147853657Y-99888679D02*
X147948895Y-99841060D01*
X147948895Y-99841060D02*
X148139371Y-99793441D01*
X148139371Y-99793441D02*
X148377466Y-99793441D01*
X148377466Y-99793441D02*
X148567942Y-99841060D01*
X148567942Y-99841060D02*
X148663180Y-99888679D01*
X148663180Y-99888679D02*
X148710800Y-99936298D01*
X148710800Y-99936298D02*
X148758419Y-100031536D01*
X148758419Y-100031536D02*
X148758419Y-100126774D01*
X148758419Y-100126774D02*
X148710800Y-100222012D01*
X148710800Y-100222012D02*
X148663180Y-100269631D01*
X148663180Y-100269631D02*
X148567942Y-100317250D01*
X148567942Y-100317250D02*
X148377466Y-100364869D01*
X148377466Y-100364869D02*
X148139371Y-100364869D01*
X148139371Y-100364869D02*
X147948895Y-100317250D01*
X147948895Y-100317250D02*
X147853657Y-100269631D01*
X147853657Y-100269631D02*
X147806038Y-100222012D01*
X147806038Y-100222012D02*
X147758419Y-100126774D01*
X152284333Y-93242526D02*
X152236714Y-93290146D01*
X152236714Y-93290146D02*
X152093857Y-93337765D01*
X152093857Y-93337765D02*
X151998619Y-93337765D01*
X151998619Y-93337765D02*
X151855762Y-93290146D01*
X151855762Y-93290146D02*
X151760524Y-93194907D01*
X151760524Y-93194907D02*
X151712905Y-93099669D01*
X151712905Y-93099669D02*
X151665286Y-92909193D01*
X151665286Y-92909193D02*
X151665286Y-92766336D01*
X151665286Y-92766336D02*
X151712905Y-92575860D01*
X151712905Y-92575860D02*
X151760524Y-92480622D01*
X151760524Y-92480622D02*
X151855762Y-92385384D01*
X151855762Y-92385384D02*
X151998619Y-92337765D01*
X151998619Y-92337765D02*
X152093857Y-92337765D01*
X152093857Y-92337765D02*
X152236714Y-92385384D01*
X152236714Y-92385384D02*
X152284333Y-92433003D01*
X153141476Y-92671098D02*
X153141476Y-93337765D01*
X152903381Y-92290146D02*
X152665286Y-93004431D01*
X152665286Y-93004431D02*
X153284333Y-93004431D01*
X164433333Y-93137180D02*
X164385714Y-93184800D01*
X164385714Y-93184800D02*
X164242857Y-93232419D01*
X164242857Y-93232419D02*
X164147619Y-93232419D01*
X164147619Y-93232419D02*
X164004762Y-93184800D01*
X164004762Y-93184800D02*
X163909524Y-93089561D01*
X163909524Y-93089561D02*
X163861905Y-92994323D01*
X163861905Y-92994323D02*
X163814286Y-92803847D01*
X163814286Y-92803847D02*
X163814286Y-92660990D01*
X163814286Y-92660990D02*
X163861905Y-92470514D01*
X163861905Y-92470514D02*
X163909524Y-92375276D01*
X163909524Y-92375276D02*
X164004762Y-92280038D01*
X164004762Y-92280038D02*
X164147619Y-92232419D01*
X164147619Y-92232419D02*
X164242857Y-92232419D01*
X164242857Y-92232419D02*
X164385714Y-92280038D01*
X164385714Y-92280038D02*
X164433333Y-92327657D01*
X164814286Y-92327657D02*
X164861905Y-92280038D01*
X164861905Y-92280038D02*
X164957143Y-92232419D01*
X164957143Y-92232419D02*
X165195238Y-92232419D01*
X165195238Y-92232419D02*
X165290476Y-92280038D01*
X165290476Y-92280038D02*
X165338095Y-92327657D01*
X165338095Y-92327657D02*
X165385714Y-92422895D01*
X165385714Y-92422895D02*
X165385714Y-92518133D01*
X165385714Y-92518133D02*
X165338095Y-92660990D01*
X165338095Y-92660990D02*
X164766667Y-93232419D01*
X164766667Y-93232419D02*
X165385714Y-93232419D01*
X166763180Y-102797012D02*
X166810800Y-102844631D01*
X166810800Y-102844631D02*
X166858419Y-102987488D01*
X166858419Y-102987488D02*
X166858419Y-103082726D01*
X166858419Y-103082726D02*
X166810800Y-103225583D01*
X166810800Y-103225583D02*
X166715561Y-103320821D01*
X166715561Y-103320821D02*
X166620323Y-103368440D01*
X166620323Y-103368440D02*
X166429847Y-103416059D01*
X166429847Y-103416059D02*
X166286990Y-103416059D01*
X166286990Y-103416059D02*
X166096514Y-103368440D01*
X166096514Y-103368440D02*
X166001276Y-103320821D01*
X166001276Y-103320821D02*
X165906038Y-103225583D01*
X165906038Y-103225583D02*
X165858419Y-103082726D01*
X165858419Y-103082726D02*
X165858419Y-102987488D01*
X165858419Y-102987488D02*
X165906038Y-102844631D01*
X165906038Y-102844631D02*
X165953657Y-102797012D01*
X165858419Y-101892250D02*
X165858419Y-102368440D01*
X165858419Y-102368440D02*
X166334609Y-102416059D01*
X166334609Y-102416059D02*
X166286990Y-102368440D01*
X166286990Y-102368440D02*
X166239371Y-102273202D01*
X166239371Y-102273202D02*
X166239371Y-102035107D01*
X166239371Y-102035107D02*
X166286990Y-101939869D01*
X166286990Y-101939869D02*
X166334609Y-101892250D01*
X166334609Y-101892250D02*
X166429847Y-101844631D01*
X166429847Y-101844631D02*
X166667942Y-101844631D01*
X166667942Y-101844631D02*
X166763180Y-101892250D01*
X166763180Y-101892250D02*
X166810800Y-101939869D01*
X166810800Y-101939869D02*
X166858419Y-102035107D01*
X166858419Y-102035107D02*
X166858419Y-102273202D01*
X166858419Y-102273202D02*
X166810800Y-102368440D01*
X166810800Y-102368440D02*
X166763180Y-102416059D01*
D11*
X148792666Y-107985165D02*
X148792666Y-108699450D01*
X148792666Y-108699450D02*
X148745047Y-108842307D01*
X148745047Y-108842307D02*
X148649809Y-108937546D01*
X148649809Y-108937546D02*
X148506952Y-108985165D01*
X148506952Y-108985165D02*
X148411714Y-108985165D01*
X149173619Y-107985165D02*
X149792666Y-107985165D01*
X149792666Y-107985165D02*
X149459333Y-108366117D01*
X149459333Y-108366117D02*
X149602190Y-108366117D01*
X149602190Y-108366117D02*
X149697428Y-108413736D01*
X149697428Y-108413736D02*
X149745047Y-108461355D01*
X149745047Y-108461355D02*
X149792666Y-108556593D01*
X149792666Y-108556593D02*
X149792666Y-108794688D01*
X149792666Y-108794688D02*
X149745047Y-108889926D01*
X149745047Y-108889926D02*
X149697428Y-108937546D01*
X149697428Y-108937546D02*
X149602190Y-108985165D01*
X149602190Y-108985165D02*
X149316476Y-108985165D01*
X149316476Y-108985165D02*
X149221238Y-108937546D01*
X149221238Y-108937546D02*
X149173619Y-108889926D01*
D10*
X158709333Y-105487765D02*
X158376000Y-105011574D01*
X158137905Y-105487765D02*
X158137905Y-104487765D01*
X158137905Y-104487765D02*
X158518857Y-104487765D01*
X158518857Y-104487765D02*
X158614095Y-104535384D01*
X158614095Y-104535384D02*
X158661714Y-104583003D01*
X158661714Y-104583003D02*
X158709333Y-104678241D01*
X158709333Y-104678241D02*
X158709333Y-104821098D01*
X158709333Y-104821098D02*
X158661714Y-104916336D01*
X158661714Y-104916336D02*
X158614095Y-104963955D01*
X158614095Y-104963955D02*
X158518857Y-105011574D01*
X158518857Y-105011574D02*
X158137905Y-105011574D01*
X159566476Y-104821098D02*
X159566476Y-105487765D01*
X159328381Y-104440146D02*
X159090286Y-105154431D01*
X159090286Y-105154431D02*
X159709333Y-105154431D01*
X151134333Y-103767526D02*
X151086714Y-103815146D01*
X151086714Y-103815146D02*
X150943857Y-103862765D01*
X150943857Y-103862765D02*
X150848619Y-103862765D01*
X150848619Y-103862765D02*
X150705762Y-103815146D01*
X150705762Y-103815146D02*
X150610524Y-103719907D01*
X150610524Y-103719907D02*
X150562905Y-103624669D01*
X150562905Y-103624669D02*
X150515286Y-103434193D01*
X150515286Y-103434193D02*
X150515286Y-103291336D01*
X150515286Y-103291336D02*
X150562905Y-103100860D01*
X150562905Y-103100860D02*
X150610524Y-103005622D01*
X150610524Y-103005622D02*
X150705762Y-102910384D01*
X150705762Y-102910384D02*
X150848619Y-102862765D01*
X150848619Y-102862765D02*
X150943857Y-102862765D01*
X150943857Y-102862765D02*
X151086714Y-102910384D01*
X151086714Y-102910384D02*
X151134333Y-102958003D01*
X151991476Y-102862765D02*
X151801000Y-102862765D01*
X151801000Y-102862765D02*
X151705762Y-102910384D01*
X151705762Y-102910384D02*
X151658143Y-102958003D01*
X151658143Y-102958003D02*
X151562905Y-103100860D01*
X151562905Y-103100860D02*
X151515286Y-103291336D01*
X151515286Y-103291336D02*
X151515286Y-103672288D01*
X151515286Y-103672288D02*
X151562905Y-103767526D01*
X151562905Y-103767526D02*
X151610524Y-103815146D01*
X151610524Y-103815146D02*
X151705762Y-103862765D01*
X151705762Y-103862765D02*
X151896238Y-103862765D01*
X151896238Y-103862765D02*
X151991476Y-103815146D01*
X151991476Y-103815146D02*
X152039095Y-103767526D01*
X152039095Y-103767526D02*
X152086714Y-103672288D01*
X152086714Y-103672288D02*
X152086714Y-103434193D01*
X152086714Y-103434193D02*
X152039095Y-103338955D01*
X152039095Y-103338955D02*
X151991476Y-103291336D01*
X151991476Y-103291336D02*
X151896238Y-103243717D01*
X151896238Y-103243717D02*
X151705762Y-103243717D01*
X151705762Y-103243717D02*
X151610524Y-103291336D01*
X151610524Y-103291336D02*
X151562905Y-103338955D01*
X151562905Y-103338955D02*
X151515286Y-103434193D01*
D11*
X170442666Y-87560165D02*
X170442666Y-88274450D01*
X170442666Y-88274450D02*
X170395047Y-88417307D01*
X170395047Y-88417307D02*
X170299809Y-88512546D01*
X170299809Y-88512546D02*
X170156952Y-88560165D01*
X170156952Y-88560165D02*
X170061714Y-88560165D01*
X170871238Y-87655403D02*
X170918857Y-87607784D01*
X170918857Y-87607784D02*
X171014095Y-87560165D01*
X171014095Y-87560165D02*
X171252190Y-87560165D01*
X171252190Y-87560165D02*
X171347428Y-87607784D01*
X171347428Y-87607784D02*
X171395047Y-87655403D01*
X171395047Y-87655403D02*
X171442666Y-87750641D01*
X171442666Y-87750641D02*
X171442666Y-87845879D01*
X171442666Y-87845879D02*
X171395047Y-87988736D01*
X171395047Y-87988736D02*
X170823619Y-88560165D01*
X170823619Y-88560165D02*
X171442666Y-88560165D01*
X164067666Y-108410165D02*
X164067666Y-109124450D01*
X164067666Y-109124450D02*
X164020047Y-109267307D01*
X164020047Y-109267307D02*
X163924809Y-109362546D01*
X163924809Y-109362546D02*
X163781952Y-109410165D01*
X163781952Y-109410165D02*
X163686714Y-109410165D01*
X164972428Y-108743498D02*
X164972428Y-109410165D01*
X164734333Y-108362546D02*
X164496238Y-109076831D01*
X164496238Y-109076831D02*
X165115285Y-109076831D01*
X170155819Y-100943440D02*
X169155819Y-100943440D01*
X169155819Y-100943440D02*
X169155819Y-100705345D01*
X169155819Y-100705345D02*
X169203438Y-100562488D01*
X169203438Y-100562488D02*
X169298676Y-100467250D01*
X169298676Y-100467250D02*
X169393914Y-100419631D01*
X169393914Y-100419631D02*
X169584390Y-100372012D01*
X169584390Y-100372012D02*
X169727247Y-100372012D01*
X169727247Y-100372012D02*
X169917723Y-100419631D01*
X169917723Y-100419631D02*
X170012961Y-100467250D01*
X170012961Y-100467250D02*
X170108200Y-100562488D01*
X170108200Y-100562488D02*
X170155819Y-100705345D01*
X170155819Y-100705345D02*
X170155819Y-100943440D01*
X170155819Y-99419631D02*
X170155819Y-99991059D01*
X170155819Y-99705345D02*
X169155819Y-99705345D01*
X169155819Y-99705345D02*
X169298676Y-99800583D01*
X169298676Y-99800583D02*
X169393914Y-99895821D01*
X169393914Y-99895821D02*
X169441533Y-99991059D01*
D12*
%TO.C,U2*%
X167266000Y-103955346D02*
X167266000Y-107715346D01*
X167266000Y-107715346D02*
X168526000Y-107715346D01*
X174086000Y-103955346D02*
X174086000Y-107715346D01*
X174086000Y-107715346D02*
X172826000Y-107715346D01*
X174316000Y-102915346D02*
X173986000Y-102675346D01*
X174316000Y-102435346D01*
X174316000Y-102915346D01*
G36*
X174316000Y-102915346D02*
G01*
X173986000Y-102675346D01*
X174316000Y-102435346D01*
X174316000Y-102915346D01*
G37*
D10*
%TO.C,SW1*%
X144376000Y-97780346D02*
X144376000Y-97780346D01*
X144376000Y-102080346D02*
X144376000Y-97780346D01*
X144376000Y-102080346D02*
X144376000Y-102080346D01*
X145576000Y-97780346D02*
X146476000Y-97780346D01*
X145576000Y-102080346D02*
X146476000Y-102080346D01*
X147576000Y-97780346D02*
X147576000Y-97780346D01*
X147576000Y-102080346D02*
X147576000Y-97780346D01*
X147576000Y-102080346D02*
X147576000Y-102080346D01*
%TO.C,Y1*%
X149926000Y-97067846D02*
X149926000Y-97467846D01*
X151226000Y-95667846D02*
X151026000Y-95667846D01*
X151226000Y-98967846D02*
X151026000Y-98967846D01*
X151726000Y-95167846D02*
X152726000Y-95167846D01*
X152426000Y-97067846D02*
X152426000Y-97467846D01*
X152726000Y-95167846D02*
X152726000Y-95867846D01*
X152726000Y-95867846D02*
X152726000Y-95167846D01*
X152726000Y-95867846D02*
X152726000Y-96267846D01*
D12*
%TO.C,J1*%
X160841000Y-90900346D02*
X160841000Y-90155346D01*
X161576000Y-90900346D02*
X160841000Y-90900346D01*
X162311000Y-89410346D02*
X165186000Y-89410346D01*
X162311000Y-89469781D02*
X162311000Y-89410346D01*
X162311000Y-90900346D02*
X162311000Y-90840911D01*
X162311000Y-90900346D02*
X165186000Y-90900346D01*
X165186000Y-89745316D02*
X165186000Y-89410346D01*
X165186000Y-90900346D02*
X165186000Y-90565376D01*
%TO.C,SW2*%
X149076000Y-88680346D02*
X149076000Y-89470346D01*
X151126000Y-90520346D02*
X150926000Y-90520346D01*
X154126000Y-90520346D02*
X152426000Y-90520346D01*
X155376000Y-87670346D02*
X149676000Y-87670346D01*
X155976000Y-89470346D02*
X155976000Y-88680346D01*
%TO.C,U1*%
X155503500Y-95270346D02*
X155953500Y-95270346D01*
X155503500Y-95720346D02*
X155503500Y-95270346D01*
X155503500Y-102490346D02*
X155503500Y-102040346D01*
X155953500Y-102490346D02*
X155503500Y-102490346D01*
X162273500Y-95270346D02*
X162723500Y-95270346D01*
X162723500Y-95270346D02*
X162723500Y-95720346D01*
X162723500Y-102040346D02*
X162723500Y-102490346D01*
X162723500Y-102490346D02*
X162273500Y-102490346D01*
X154863500Y-95720346D02*
X154523500Y-95250346D01*
X155203500Y-95250346D01*
X154863500Y-95720346D01*
G36*
X154863500Y-95720346D02*
G01*
X154523500Y-95250346D01*
X155203500Y-95250346D01*
X154863500Y-95720346D01*
G37*
D10*
%TO.C,FB1*%
X148951000Y-101455346D02*
X148951000Y-100855346D01*
X149951000Y-101455346D02*
X149951000Y-100855346D01*
D12*
%TO.C,J3*%
X150516000Y-109375346D02*
X150516000Y-108630346D01*
X151251000Y-109375346D02*
X150516000Y-109375346D01*
X151986000Y-107885346D02*
X156861000Y-107885346D01*
X151986000Y-107944781D02*
X151986000Y-107885346D01*
X151986000Y-109375346D02*
X151986000Y-109315911D01*
X151986000Y-109375346D02*
X156861000Y-109375346D01*
X156861000Y-108220316D02*
X156861000Y-107885346D01*
X156861000Y-109375346D02*
X156861000Y-109040376D01*
D11*
%TO.C,J2*%
X166826000Y-90655346D02*
X166826000Y-90805346D01*
X166826000Y-93205346D02*
X166826000Y-94605346D01*
X167126000Y-90205346D02*
X167126000Y-90655346D01*
X167126000Y-90655346D02*
X166826000Y-90655346D01*
X169176000Y-96355346D02*
X168176000Y-96355346D01*
X172051000Y-96780346D02*
X172776000Y-96780346D01*
X172776000Y-96355346D02*
X173776000Y-96355346D01*
X172776000Y-96780346D02*
X172776000Y-96355346D01*
X174826000Y-90655346D02*
X174826000Y-90205346D01*
X175126000Y-90655346D02*
X174826000Y-90655346D01*
X175126000Y-90805346D02*
X175126000Y-90655346D01*
X175126000Y-94605346D02*
X175126000Y-93205346D01*
D12*
%TO.C,J4*%
X158491000Y-107835346D02*
X158491000Y-108170316D01*
X158491000Y-108990376D02*
X158491000Y-109325346D01*
X161366000Y-107835346D02*
X158491000Y-107835346D01*
X161366000Y-107835346D02*
X161366000Y-107894781D01*
X161366000Y-109265911D02*
X161366000Y-109325346D01*
X161366000Y-109325346D02*
X158491000Y-109325346D01*
X162101000Y-107835346D02*
X162836000Y-107835346D01*
X162836000Y-107835346D02*
X162836000Y-108580346D01*
%TO.C,D1*%
X165941000Y-99595346D02*
X165941000Y-101065346D01*
X165941000Y-101065346D02*
X168226000Y-101065346D01*
X168226000Y-99595346D02*
X165941000Y-99595346D01*
%TD*%
M02*
