M48
; DRILL file {KiCad 9.0.7} date 2026-09-26T10:30:42+0700
; FORMAT={-:-/ absolute / metric / decimal}
; #@! TF.CreationDate,2026-09-26T10:30:42+07:00
; #@! TF.GenerationSoftware,Kicad,Pcbnew,9.0.7
; #@! TF.FileFunction,Plated,1,2,PTH
FMAT,2
METRIC
; #@! TA.AperFunction,Plated,PTH,ViaDrill
T1C0.300
; #@! TA.AperFunction,Plated,PTH,ComponentDrill
T2C0.500
; #@! TA.AperFunction,Plated,PTH,ComponentDrill
T3C0.550
; #@! TA.AperFunction,Plated,PTH,ComponentDrill
T4C0.850
%
G90
G05
T1
X147.426Y-95.005
X150.126Y-93.88
X153.301Y-98.73
X153.526Y-95.53
X153.581Y-99.896
X156.851Y-106.83
X157.651Y-89.255
X157.951Y-92.955
X160.776Y-91.88
X161.851Y-96.63
X162.726Y-103.056
X163.701Y-107.705
X163.776Y-95.405
X170.413Y-97.917
X173.176Y-98.18
T2
X151.251Y-108.63
X152.251Y-108.63
X153.251Y-108.63
X154.251Y-108.63
X155.251Y-108.63
X156.251Y-108.63
X159.101Y-108.58
X160.101Y-108.58
X161.101Y-108.58
X161.576Y-90.155
X162.101Y-108.58
X162.576Y-90.155
X163.576Y-90.155
X164.576Y-90.155
T3
G00X167.101Y-92.33
M15
G01X167.101Y-91.68
M16
G05
G00X174.851Y-92.33
M15
G01X174.851Y-91.68
M16
G05
T4
G00X167.251Y-96.08
M15
G01X167.251Y-95.53
M16
G05
G00X174.701Y-96.08
M15
G01X174.701Y-95.53
M16
G05
M30
