%TF.GenerationSoftware,KiCad,Pcbnew,9.0.7*%
%TF.CreationDate,2026-09-26T10:30:24+07:00*%
%TF.ProjectId,stm32f103_Muhammad Refansa Annaafi,73746d33-3266-4313-9033-5f4d7568616d,rev?*%
%TF.SameCoordinates,Original*%
%TF.FileFunction,Paste,Top*%
%TF.FilePolarity,Positive*%
%FSLAX46Y46*%
G04 Gerber Fmt 4.6, Leading zero omitted, Abs format (unit mm)*
G04 Created by KiCad (PCBNEW 9.0.7) date 2026-09-26 10:30:24*
%MOMM*%
%LPD*%
G01*
G04 APERTURE LIST*
G04 Aperture macros list*
%AMRoundRect*
0 Rectangle with rounded corners*
0 $1 Rounding radius*
0 $2 $3 $4 $5 $6 $7 $8 $9 X,Y pos of 4 corners*
0 Add a 4 corners polygon primitive as box body*
4,1,4,$2,$3,$4,$5,$6,$7,$8,$9,$2,$3,0*
0 Add four circle primitives for the rounded corners*
1,1,$1+$1,$2,$3*
1,1,$1+$1,$4,$5*
1,1,$1+$1,$6,$7*
1,1,$1+$1,$8,$9*
0 Add four rect primitives between the rounded corners*
20,1,$1+$1,$2,$3,$4,$5,0*
20,1,$1+$1,$4,$5,$6,$7,0*
20,1,$1+$1,$6,$7,$8,$9,0*
20,1,$1+$1,$8,$9,$2,$3,0*%
G04 Aperture macros list end*
%ADD10RoundRect,0.375000X-0.375000X0.625000X-0.375000X-0.625000X0.375000X-0.625000X0.375000X0.625000X0*%
%ADD11RoundRect,0.500000X-1.400000X0.500000X-1.400000X-0.500000X1.400000X-0.500000X1.400000X0.500000X0*%
%ADD12R,1.000000X0.700000*%
%ADD13R,0.650000X1.050000*%
%ADD14R,0.700000X1.000000*%
%ADD15RoundRect,0.172500X-0.402500X0.527500X-0.402500X-0.527500X0.402500X-0.527500X0.402500X0.527500X0*%
%ADD16R,1.150000X1.400000*%
%ADD17R,1.000000X0.800000*%
%ADD18R,0.700000X1.500000*%
%ADD19RoundRect,0.075000X-0.662500X-0.075000X0.662500X-0.075000X0.662500X0.075000X-0.662500X0.075000X0*%
%ADD20RoundRect,0.075000X-0.075000X-0.662500X0.075000X-0.662500X0.075000X0.662500X-0.075000X0.662500X0*%
%ADD21R,1.200000X0.850000*%
%ADD22R,0.450000X1.300000*%
%ADD23RoundRect,0.218750X-0.218750X-0.256250X0.218750X-0.256250X0.218750X0.256250X-0.218750X0.256250X0*%
G04 APERTURE END LIST*
D10*
%TO.C,U2*%
X172976000Y-102655346D03*
X170676000Y-102655346D03*
D11*
X170676000Y-108955346D03*
D10*
X168376000Y-102655346D03*
%TD*%
D12*
%TO.C,C7*%
X153026000Y-100505346D03*
X153026000Y-102005346D03*
%TD*%
D13*
%TO.C,SW1*%
X147051000Y-102055346D03*
X147051000Y-97905346D03*
X144901000Y-97905346D03*
X144901000Y-102055346D03*
%TD*%
D14*
%TO.C,C8*%
X151176000Y-94355346D03*
X152676000Y-94355346D03*
%TD*%
%TO.C,R1*%
X157826000Y-91655346D03*
X159326000Y-91655346D03*
%TD*%
%TO.C,R5*%
X160976000Y-105980346D03*
X162476000Y-105980346D03*
%TD*%
D12*
%TO.C,R3*%
X165126000Y-97575000D03*
X165126000Y-96075000D03*
%TD*%
D14*
%TO.C,C1*%
X156826000Y-92980346D03*
X155326000Y-92980346D03*
%TD*%
%TO.C,C3*%
X162976000Y-104505346D03*
X164476000Y-104505346D03*
%TD*%
D15*
%TO.C,Y1*%
X151926000Y-96167846D03*
D16*
X151926000Y-98367846D03*
X150326000Y-98367846D03*
X150326000Y-96167846D03*
%TD*%
D14*
%TO.C,C12*%
X173613500Y-100530346D03*
X172113500Y-100530346D03*
%TD*%
%TO.C,C9*%
X147426000Y-96055346D03*
X148926000Y-96055346D03*
%TD*%
D17*
%TO.C,SW2*%
X156176000Y-90180346D03*
X156176000Y-87970346D03*
X148876000Y-90180346D03*
X148876000Y-87970346D03*
D18*
X154776000Y-90830346D03*
X151776000Y-90830346D03*
X150276000Y-90830346D03*
%TD*%
D19*
%TO.C,U1*%
X154951000Y-96130346D03*
X154951000Y-96630346D03*
X154951000Y-97130346D03*
X154951000Y-97630346D03*
X154951000Y-98130346D03*
X154951000Y-98630346D03*
X154951000Y-99130346D03*
X154951000Y-99630346D03*
X154951000Y-100130346D03*
X154951000Y-100630346D03*
X154951000Y-101130346D03*
X154951000Y-101630346D03*
D20*
X156363500Y-103042846D03*
X156863500Y-103042846D03*
X157363500Y-103042846D03*
X157863500Y-103042846D03*
X158363500Y-103042846D03*
X158863500Y-103042846D03*
X159363500Y-103042846D03*
X159863500Y-103042846D03*
X160363500Y-103042846D03*
X160863500Y-103042846D03*
X161363500Y-103042846D03*
X161863500Y-103042846D03*
D19*
X163276000Y-101630346D03*
X163276000Y-101130346D03*
X163276000Y-100630346D03*
X163276000Y-100130346D03*
X163276000Y-99630346D03*
X163276000Y-99130346D03*
X163276000Y-98630346D03*
X163276000Y-98130346D03*
X163276000Y-97630346D03*
X163276000Y-97130346D03*
X163276000Y-96630346D03*
X163276000Y-96130346D03*
D20*
X161863500Y-94717846D03*
X161363500Y-94717846D03*
X160863500Y-94717846D03*
X160363500Y-94717846D03*
X159863500Y-94717846D03*
X159363500Y-94717846D03*
X158863500Y-94717846D03*
X158363500Y-94717846D03*
X157863500Y-94717846D03*
X157363500Y-94717846D03*
X156863500Y-94717846D03*
X156363500Y-94717846D03*
%TD*%
D21*
%TO.C,FB1*%
X149451000Y-101980346D03*
X149451000Y-100330346D03*
%TD*%
D14*
%TO.C,R2*%
X169551000Y-98780346D03*
X168051000Y-98780346D03*
%TD*%
%TO.C,C11*%
X172476000Y-99105346D03*
X170976000Y-99105346D03*
%TD*%
D12*
%TO.C,C10*%
X148701000Y-97680346D03*
X148701000Y-99180346D03*
%TD*%
%TO.C,C4*%
X154026000Y-94630346D03*
X154026000Y-93130346D03*
%TD*%
D14*
%TO.C,C2*%
X163076000Y-94355346D03*
X164576000Y-94355346D03*
%TD*%
%TO.C,C5*%
X163701000Y-102855346D03*
X165201000Y-102855346D03*
%TD*%
%TO.C,R4*%
X159726000Y-106255346D03*
X158226000Y-106255346D03*
%TD*%
D12*
%TO.C,C6*%
X151176000Y-100405346D03*
X151176000Y-101905346D03*
%TD*%
D22*
%TO.C,J2*%
X172276000Y-95855346D03*
X171626000Y-95855346D03*
X170976000Y-95855346D03*
X170326000Y-95855346D03*
X169676000Y-95855346D03*
%TD*%
D23*
%TO.C,D1*%
X166638500Y-100330346D03*
X168213500Y-100330346D03*
%TD*%
M02*
