%TF.GenerationSoftware,KiCad,Pcbnew,9.0.7*%
%TF.CreationDate,2026-09-26T10:30:24+07:00*%
%TF.ProjectId,stm32f103_Muhammad Refansa Annaafi,73746d33-3266-4313-9033-5f4d7568616d,rev?*%
%TF.SameCoordinates,Original*%
%TF.FileFunction,Copper,L1,Top*%
%TF.FilePolarity,Positive*%
%FSLAX46Y46*%
G04 Gerber Fmt 4.6, Leading zero omitted, Abs format (unit mm)*
G04 Created by KiCad (PCBNEW 9.0.7) date 2026-09-26 10:30:24*
%MOMM*%
%LPD*%
G01*
G04 APERTURE LIST*
G04 Aperture macros list*
%AMRoundRect*
0 Rectangle with rounded corners*
0 $1 Rounding radius*
0 $2 $3 $4 $5 $6 $7 $8 $9 X,Y pos of 4 corners*
0 Add a 4 corners polygon primitive as box body*
4,1,4,$2,$3,$4,$5,$6,$7,$8,$9,$2,$3,0*
0 Add four circle primitives for the rounded corners*
1,1,$1+$1,$2,$3*
1,1,$1+$1,$4,$5*
1,1,$1+$1,$6,$7*
1,1,$1+$1,$8,$9*
0 Add four rect primitives between the rounded corners*
20,1,$1+$1,$2,$3,$4,$5,0*
20,1,$1+$1,$4,$5,$6,$7,0*
20,1,$1+$1,$6,$7,$8,$9,0*
20,1,$1+$1,$8,$9,$2,$3,0*%
G04 Aperture macros list end*
%TA.AperFunction,SMDPad,CuDef*%
%ADD10RoundRect,0.375000X-0.375000X0.625000X-0.375000X-0.625000X0.375000X-0.625000X0.375000X0.625000X0*%
%TD*%
%TA.AperFunction,SMDPad,CuDef*%
%ADD11RoundRect,0.500000X-1.400000X0.500000X-1.400000X-0.500000X1.400000X-0.500000X1.400000X0.500000X0*%
%TD*%
%TA.AperFunction,SMDPad,CuDef*%
%ADD12R,1.000000X0.700000*%
%TD*%
%TA.AperFunction,SMDPad,CuDef*%
%ADD13R,0.650000X1.050000*%
%TD*%
%TA.AperFunction,SMDPad,CuDef*%
%ADD14R,0.700000X1.000000*%
%TD*%
%TA.AperFunction,SMDPad,CuDef*%
%ADD15RoundRect,0.172500X-0.402500X0.527500X-0.402500X-0.527500X0.402500X-0.527500X0.402500X0.527500X0*%
%TD*%
%TA.AperFunction,SMDPad,CuDef*%
%ADD16R,1.150000X1.400000*%
%TD*%
%TA.AperFunction,ComponentPad*%
%ADD17R,0.850000X0.850000*%
%TD*%
%TA.AperFunction,ComponentPad*%
%ADD18C,0.850000*%
%TD*%
%TA.AperFunction,SMDPad,CuDef*%
%ADD19R,1.000000X0.800000*%
%TD*%
%TA.AperFunction,SMDPad,CuDef*%
%ADD20R,0.700000X1.500000*%
%TD*%
%TA.AperFunction,SMDPad,CuDef*%
%ADD21RoundRect,0.075000X-0.662500X-0.075000X0.662500X-0.075000X0.662500X0.075000X-0.662500X0.075000X0*%
%TD*%
%TA.AperFunction,SMDPad,CuDef*%
%ADD22RoundRect,0.075000X-0.075000X-0.662500X0.075000X-0.662500X0.075000X0.662500X-0.075000X0.662500X0*%
%TD*%
%TA.AperFunction,SMDPad,CuDef*%
%ADD23R,1.200000X0.850000*%
%TD*%
%TA.AperFunction,SMDPad,CuDef*%
%ADD24R,0.450000X1.300000*%
%TD*%
%TA.AperFunction,HeatsinkPad*%
%ADD25O,1.150000X1.800000*%
%TD*%
%TA.AperFunction,HeatsinkPad*%
%ADD26O,1.450000X2.000000*%
%TD*%
%TA.AperFunction,SMDPad,CuDef*%
%ADD27RoundRect,0.218750X-0.218750X-0.256250X0.218750X-0.256250X0.218750X0.256250X-0.218750X0.256250X0*%
%TD*%
%TA.AperFunction,ViaPad*%
%ADD28C,0.600000*%
%TD*%
%TA.AperFunction,Conductor*%
%ADD29C,0.300000*%
%TD*%
%TA.AperFunction,Conductor*%
%ADD30C,0.500000*%
%TD*%
%TA.AperFunction,Conductor*%
%ADD31C,0.200000*%
%TD*%
G04 APERTURE END LIST*
D10*
%TO.P,U2,1,ADJ*%
%TO.N,GND*%
X172976000Y-102655346D03*
%TO.P,U2,2,VO*%
%TO.N,+3.3V*%
X170676000Y-102655346D03*
D11*
X170676000Y-108955346D03*
D10*
%TO.P,U2,3,VI*%
%TO.N,VBUS*%
X168376000Y-102655346D03*
%TD*%
D12*
%TO.P,C7,1,1*%
%TO.N,GND*%
X153026000Y-100505346D03*
%TO.P,C7,2,2*%
%TO.N,+3.3V*%
X153026000Y-102005346D03*
%TD*%
D13*
%TO.P,SW1,1,1*%
%TO.N,/NRST*%
X147051000Y-102055346D03*
%TO.P,SW1,2,2*%
X147051000Y-97905346D03*
%TO.P,SW1,3,3*%
%TO.N,GND*%
X144901000Y-97905346D03*
%TO.P,SW1,4,4*%
X144901000Y-102055346D03*
%TD*%
D14*
%TO.P,C8,1,1*%
%TO.N,GND*%
X151176000Y-94355346D03*
%TO.P,C8,2,2*%
%TO.N,Net-(U1-PD0)*%
X152676000Y-94355346D03*
%TD*%
%TO.P,R1,1,1*%
%TO.N,/BOOT_SW*%
X157826000Y-91655346D03*
%TO.P,R1,2,2*%
%TO.N,/BOOT0*%
X159326000Y-91655346D03*
%TD*%
%TO.P,R5,1,1*%
%TO.N,/I2C_SDA*%
X160976000Y-105980346D03*
%TO.P,R5,2,2*%
%TO.N,+3.3V*%
X162476000Y-105980346D03*
%TD*%
D12*
%TO.P,R3,1,1*%
%TO.N,/USB_DP*%
X165126000Y-97575000D03*
%TO.P,R3,2,2*%
%TO.N,+3.3V*%
X165126000Y-96075000D03*
%TD*%
D14*
%TO.P,C1,1,1*%
%TO.N,GND*%
X156826000Y-92980346D03*
%TO.P,C1,2,2*%
%TO.N,+3.3V*%
X155326000Y-92980346D03*
%TD*%
%TO.P,C3,1,1*%
%TO.N,GND*%
X162976000Y-104505346D03*
%TO.P,C3,2,2*%
%TO.N,+3.3V*%
X164476000Y-104505346D03*
%TD*%
D15*
%TO.P,Y1,1,1*%
%TO.N,Net-(U1-PD0)*%
X151926000Y-96167846D03*
D16*
%TO.P,Y1,2,2*%
%TO.N,GND*%
X151926000Y-98367846D03*
%TO.P,Y1,3,3*%
%TO.N,Net-(U1-PD1)*%
X150326000Y-98367846D03*
%TO.P,Y1,4,4*%
%TO.N,GND*%
X150326000Y-96167846D03*
%TD*%
D17*
%TO.P,J1,1,Pin_1*%
%TO.N,GND*%
X161576000Y-90155346D03*
D18*
%TO.P,J1,2,Pin_2*%
%TO.N,/SWDCLK*%
X162576000Y-90155346D03*
%TO.P,J1,3,Pin_3*%
%TO.N,/SWDIO*%
X163576000Y-90155346D03*
%TO.P,J1,4,Pin_4*%
%TO.N,+3.3V*%
X164576000Y-90155346D03*
%TD*%
D14*
%TO.P,C12,1,1*%
%TO.N,GND*%
X173613500Y-100530346D03*
%TO.P,C12,2,2*%
%TO.N,+3.3V*%
X172113500Y-100530346D03*
%TD*%
%TO.P,C9,1,1*%
%TO.N,GND*%
X147426000Y-96055346D03*
%TO.P,C9,2,2*%
%TO.N,Net-(U1-PD1)*%
X148926000Y-96055346D03*
%TD*%
D19*
%TO.P,SW2,*%
%TO.N,*%
X156176000Y-90180346D03*
X156176000Y-87970346D03*
X148876000Y-90180346D03*
X148876000Y-87970346D03*
D20*
%TO.P,SW2,1,A*%
%TO.N,GND*%
X154776000Y-90830346D03*
%TO.P,SW2,2,B*%
%TO.N,/BOOT_SW*%
X151776000Y-90830346D03*
%TO.P,SW2,3,C*%
%TO.N,+3.3V*%
X150276000Y-90830346D03*
%TD*%
D21*
%TO.P,U1,1,VBAT*%
%TO.N,+3.3V*%
X154951000Y-96130346D03*
%TO.P,U1,2,PC13*%
%TO.N,unconnected-(U1-PC13-Pad2)*%
X154951000Y-96630346D03*
%TO.P,U1,3,PC14*%
%TO.N,unconnected-(U1-PC14-Pad3)*%
X154951000Y-97130346D03*
%TO.P,U1,4,PC15*%
%TO.N,unconnected-(U1-PC15-Pad4)*%
X154951000Y-97630346D03*
%TO.P,U1,5,PD0*%
%TO.N,Net-(U1-PD0)*%
X154951000Y-98130346D03*
%TO.P,U1,6,PD1*%
%TO.N,Net-(U1-PD1)*%
X154951000Y-98630346D03*
%TO.P,U1,7,NRST*%
%TO.N,/NRST*%
X154951000Y-99130346D03*
%TO.P,U1,8,VSSA*%
%TO.N,GND*%
X154951000Y-99630346D03*
%TO.P,U1,9,VDDA*%
%TO.N,+3.3V*%
X154951000Y-100130346D03*
%TO.P,U1,10,PA0*%
%TO.N,unconnected-(U1-PA0-Pad10)*%
X154951000Y-100630346D03*
%TO.P,U1,11,PA1*%
%TO.N,unconnected-(U1-PA1-Pad11)*%
X154951000Y-101130346D03*
%TO.P,U1,12,PA2*%
%TO.N,unconnected-(U1-PA2-Pad12)*%
X154951000Y-101630346D03*
D22*
%TO.P,U1,13,PA3*%
%TO.N,unconnected-(U1-PA3-Pad13)*%
X156363500Y-103042846D03*
%TO.P,U1,14,PA4*%
%TO.N,/SPI1_NSS*%
X156863500Y-103042846D03*
%TO.P,U1,15,PA5*%
%TO.N,/SPI1_SCK*%
X157363500Y-103042846D03*
%TO.P,U1,16,PA6*%
%TO.N,/SPI1_MISO*%
X157863500Y-103042846D03*
%TO.P,U1,17,PA7*%
%TO.N,/SPI1_MOSI*%
X158363500Y-103042846D03*
%TO.P,U1,18,PB0*%
%TO.N,unconnected-(U1-PB0-Pad18)*%
X158863500Y-103042846D03*
%TO.P,U1,19,PB1*%
%TO.N,unconnected-(U1-PB1-Pad19)*%
X159363500Y-103042846D03*
%TO.P,U1,20,PB2*%
%TO.N,unconnected-(U1-PB2-Pad20)*%
X159863500Y-103042846D03*
%TO.P,U1,21,PB10*%
%TO.N,/I2C_SCL*%
X160363500Y-103042846D03*
%TO.P,U1,22,PB11*%
%TO.N,/I2C_SDA*%
X160863500Y-103042846D03*
%TO.P,U1,23,VSS*%
%TO.N,GND*%
X161363500Y-103042846D03*
%TO.P,U1,24,VDD*%
%TO.N,+3.3V*%
X161863500Y-103042846D03*
D21*
%TO.P,U1,25,PB12*%
%TO.N,unconnected-(U1-PB12-Pad25)*%
X163276000Y-101630346D03*
%TO.P,U1,26,PB13*%
%TO.N,unconnected-(U1-PB13-Pad26)*%
X163276000Y-101130346D03*
%TO.P,U1,27,PB14*%
%TO.N,unconnected-(U1-PB14-Pad27)*%
X163276000Y-100630346D03*
%TO.P,U1,28,PB15*%
%TO.N,unconnected-(U1-PB15-Pad28)*%
X163276000Y-100130346D03*
%TO.P,U1,29,PA8*%
%TO.N,unconnected-(U1-PA8-Pad29)*%
X163276000Y-99630346D03*
%TO.P,U1,30,PA9*%
%TO.N,unconnected-(U1-PA9-Pad30)*%
X163276000Y-99130346D03*
%TO.P,U1,31,PA10*%
%TO.N,unconnected-(U1-PA10-Pad31)*%
X163276000Y-98630346D03*
%TO.P,U1,32,PA11*%
%TO.N,/USB_DN*%
X163276000Y-98130346D03*
%TO.P,U1,33,PA12*%
%TO.N,/USB_DP*%
X163276000Y-97630346D03*
%TO.P,U1,34,PA13*%
%TO.N,/SWDIO*%
X163276000Y-97130346D03*
%TO.P,U1,35,VSS*%
%TO.N,GND*%
X163276000Y-96630346D03*
%TO.P,U1,36,VDD*%
%TO.N,+3.3V*%
X163276000Y-96130346D03*
D22*
%TO.P,U1,37,PA14*%
%TO.N,/SWDCLK*%
X161863500Y-94717846D03*
%TO.P,U1,38,PA15*%
%TO.N,unconnected-(U1-PA15-Pad38)*%
X161363500Y-94717846D03*
%TO.P,U1,39,PB3*%
%TO.N,unconnected-(U1-PB3-Pad39)*%
X160863500Y-94717846D03*
%TO.P,U1,40,PB4*%
%TO.N,unconnected-(U1-PB4-Pad40)*%
X160363500Y-94717846D03*
%TO.P,U1,41,PB5*%
%TO.N,unconnected-(U1-PB5-Pad41)*%
X159863500Y-94717846D03*
%TO.P,U1,42,PB6*%
%TO.N,unconnected-(U1-PB6-Pad42)*%
X159363500Y-94717846D03*
%TO.P,U1,43,PB7*%
%TO.N,unconnected-(U1-PB7-Pad43)*%
X158863500Y-94717846D03*
%TO.P,U1,44,BOOT0*%
%TO.N,/BOOT0*%
X158363500Y-94717846D03*
%TO.P,U1,45,PB8*%
%TO.N,unconnected-(U1-PB8-Pad45)*%
X157863500Y-94717846D03*
%TO.P,U1,46,PB9*%
%TO.N,unconnected-(U1-PB9-Pad46)*%
X157363500Y-94717846D03*
%TO.P,U1,47,VSS*%
%TO.N,GND*%
X156863500Y-94717846D03*
%TO.P,U1,48,VDD*%
%TO.N,+3.3V*%
X156363500Y-94717846D03*
%TD*%
D23*
%TO.P,FB1,1,1*%
%TO.N,+3.3V*%
X149451000Y-101980346D03*
%TO.P,FB1,2,2*%
X149451000Y-100330346D03*
%TD*%
D14*
%TO.P,R2,1,1*%
%TO.N,GND*%
X169551000Y-98780346D03*
%TO.P,R2,2,2*%
%TO.N,Net-(D1-C)*%
X168051000Y-98780346D03*
%TD*%
%TO.P,C11,1,1*%
%TO.N,GND*%
X172476000Y-99105346D03*
%TO.P,C11,2,2*%
%TO.N,VBUS*%
X170976000Y-99105346D03*
%TD*%
D12*
%TO.P,C10,1,1*%
%TO.N,GND*%
X148701000Y-97680346D03*
%TO.P,C10,2,2*%
%TO.N,/NRST*%
X148701000Y-99180346D03*
%TD*%
%TO.P,C4,1,1*%
%TO.N,GND*%
X154026000Y-94630346D03*
%TO.P,C4,2,2*%
%TO.N,+3.3V*%
X154026000Y-93130346D03*
%TD*%
D14*
%TO.P,C2,1,1*%
%TO.N,GND*%
X163076000Y-94355346D03*
%TO.P,C2,2,2*%
%TO.N,+3.3V*%
X164576000Y-94355346D03*
%TD*%
%TO.P,C5,1,1*%
%TO.N,GND*%
X163701000Y-102855346D03*
%TO.P,C5,2,2*%
%TO.N,+3.3V*%
X165201000Y-102855346D03*
%TD*%
D17*
%TO.P,J3,1,Pin_1*%
%TO.N,+3.3V*%
X151251000Y-108630346D03*
D18*
%TO.P,J3,2,Pin_2*%
%TO.N,/SPI1_NSS*%
X152251000Y-108630346D03*
%TO.P,J3,3,Pin_3*%
%TO.N,/SPI1_SCK*%
X153251000Y-108630346D03*
%TO.P,J3,4,Pin_4*%
%TO.N,/SPI1_MISO*%
X154251000Y-108630346D03*
%TO.P,J3,5,Pin_5*%
%TO.N,/SPI1_MOSI*%
X155251000Y-108630346D03*
%TO.P,J3,6,Pin_6*%
%TO.N,GND*%
X156251000Y-108630346D03*
%TD*%
D14*
%TO.P,R4,1,1*%
%TO.N,/I2C_SCL*%
X159726000Y-106255346D03*
%TO.P,R4,2,2*%
%TO.N,+3.3V*%
X158226000Y-106255346D03*
%TD*%
D12*
%TO.P,C6,1,1*%
%TO.N,GND*%
X151176000Y-100405346D03*
%TO.P,C6,2,2*%
%TO.N,+3.3V*%
X151176000Y-101905346D03*
%TD*%
D24*
%TO.P,J2,1,VBUS*%
%TO.N,VBUS*%
X172276000Y-95855346D03*
%TO.P,J2,2,D-*%
%TO.N,/USB_DN*%
X171626000Y-95855346D03*
%TO.P,J2,3,D+*%
%TO.N,/USB_DP*%
X170976000Y-95855346D03*
%TO.P,J2,4,ID*%
%TO.N,unconnected-(J2-ID-Pad4)*%
X170326000Y-95855346D03*
%TO.P,J2,5,GND*%
%TO.N,GND*%
X169676000Y-95855346D03*
D25*
%TO.P,J2,6,Shield*%
X174851000Y-92005346D03*
D26*
X174701000Y-95805346D03*
X167251000Y-95805346D03*
D25*
X167101000Y-92005346D03*
%TD*%
D17*
%TO.P,J4,1,Pin_1*%
%TO.N,GND*%
X162101000Y-108580346D03*
D18*
%TO.P,J4,2,Pin_2*%
%TO.N,/I2C_SDA*%
X161101000Y-108580346D03*
%TO.P,J4,3,Pin_3*%
%TO.N,/I2C_SCL*%
X160101000Y-108580346D03*
%TO.P,J4,4,Pin_4*%
%TO.N,+3.3V*%
X159101000Y-108580346D03*
%TD*%
D27*
%TO.P,D1,1,A*%
%TO.N,+3.3V*%
X166638500Y-100330346D03*
%TO.P,D1,2,C*%
%TO.N,Net-(D1-C)*%
X168213500Y-100330346D03*
%TD*%
D28*
%TO.N,GND*%
X157651000Y-89255346D03*
X162726000Y-103056346D03*
X153526000Y-95530346D03*
X161851000Y-96630346D03*
X163701000Y-107705346D03*
X173176000Y-98180346D03*
X170412765Y-97917111D03*
X163776000Y-95405346D03*
X153580917Y-99895846D03*
X156851000Y-106830346D03*
X153301000Y-98730346D03*
X157951000Y-92955346D03*
X150126000Y-93880346D03*
X160776000Y-91880346D03*
X147426000Y-95005346D03*
%TD*%
D29*
%TO.N,GND*%
X161640204Y-102027346D02*
X162086796Y-102027346D01*
D30*
X173613500Y-100242846D02*
X172476000Y-99105346D01*
D29*
X163076000Y-94705346D02*
X163776000Y-95405346D01*
X154951000Y-99630346D02*
X154214249Y-99630346D01*
D30*
X156251000Y-108630346D02*
X156251000Y-107430346D01*
D31*
X154026000Y-95030346D02*
X153526000Y-95530346D01*
D29*
X162087204Y-104505346D02*
X162976000Y-104505346D01*
D30*
X151176000Y-94355346D02*
X150601000Y-94355346D01*
D29*
X163276000Y-96630346D02*
X161851000Y-96630346D01*
D30*
X160776000Y-90955346D02*
X161576000Y-90155346D01*
D31*
X167251000Y-92155346D02*
X167101000Y-92005346D01*
D29*
X162086796Y-102027346D02*
X162726000Y-102666550D01*
D31*
X151276000Y-100505346D02*
X151176000Y-100405346D01*
D29*
X169551000Y-98778876D02*
X170412765Y-97917111D01*
D31*
X152938500Y-98367846D02*
X153301000Y-98730346D01*
D30*
X150601000Y-94355346D02*
X150126000Y-93880346D01*
X148701000Y-97680346D02*
X148701000Y-97330346D01*
D29*
X169551000Y-98780346D02*
X169551000Y-98778876D01*
D31*
X157926000Y-92980346D02*
X157951000Y-92955346D01*
D29*
X161363500Y-102304050D02*
X161640204Y-102027346D01*
D30*
X174701000Y-92155346D02*
X174851000Y-92005346D01*
X167101000Y-92005346D02*
X167101000Y-95655346D01*
X150326000Y-96167846D02*
X150326000Y-95205346D01*
X147426000Y-96055346D02*
X147426000Y-95005346D01*
D29*
X154214249Y-99630346D02*
X154097748Y-99746846D01*
X162726000Y-103056346D02*
X163500000Y-103056346D01*
D30*
X156251000Y-107430346D02*
X156851000Y-106830346D01*
D29*
X153026000Y-100450763D02*
X153580917Y-99895846D01*
D30*
X173001000Y-102680346D02*
X173001000Y-101142846D01*
D31*
X154026000Y-94630346D02*
X154026000Y-95030346D01*
D30*
X173001000Y-101142846D02*
X173613500Y-100530346D01*
D29*
X163076000Y-94355346D02*
X163076000Y-94705346D01*
D30*
X174701000Y-95805346D02*
X174701000Y-92155346D01*
D31*
X156826000Y-92980346D02*
X157926000Y-92980346D01*
D30*
X167101000Y-95655346D02*
X167251000Y-95805346D01*
X152926000Y-100405346D02*
X153026000Y-100505346D01*
X144901000Y-97905346D02*
X146751000Y-96055346D01*
X153026000Y-100505346D02*
X153058055Y-100505346D01*
D29*
X153026000Y-100505346D02*
X153026000Y-100450763D01*
X172476000Y-98880346D02*
X173176000Y-98180346D01*
X172476000Y-99105346D02*
X172476000Y-98880346D01*
D30*
X173613500Y-100530346D02*
X173613500Y-100242846D01*
X169600000Y-95805346D02*
X169650000Y-95855346D01*
D31*
X167301000Y-95855346D02*
X167251000Y-95805346D01*
X156826000Y-94680346D02*
X156863500Y-94717846D01*
D30*
X155299000Y-89255346D02*
X157651000Y-89255346D01*
D29*
X153729917Y-99746846D02*
X153580917Y-99895846D01*
D31*
X156826000Y-92980346D02*
X156826000Y-94680346D01*
D30*
X144901000Y-102055346D02*
X144901000Y-97905346D01*
D29*
X162726000Y-102666550D02*
X162726000Y-103056346D01*
X161363500Y-103042846D02*
X161363500Y-102304050D01*
D30*
X148701000Y-97330346D02*
X147426000Y-96055346D01*
D29*
X161363500Y-103042846D02*
X161363500Y-103781642D01*
D30*
X162101000Y-108580346D02*
X162826000Y-108580346D01*
D29*
X154097748Y-99746846D02*
X153729917Y-99746846D01*
D30*
X146751000Y-96055346D02*
X147426000Y-96055346D01*
X154776000Y-89778346D02*
X155299000Y-89255346D01*
X167251000Y-95805346D02*
X169600000Y-95805346D01*
X154776000Y-90830346D02*
X154776000Y-89778346D01*
D31*
X151926000Y-98367846D02*
X152938500Y-98367846D01*
D30*
X162826000Y-108580346D02*
X163701000Y-107705346D01*
X151176000Y-100405346D02*
X152926000Y-100405346D01*
D29*
X163500000Y-103056346D02*
X163701000Y-102855346D01*
X161363500Y-103781642D02*
X162087204Y-104505346D01*
D30*
X150326000Y-95205346D02*
X151176000Y-94355346D01*
X160776000Y-91880346D02*
X160776000Y-90955346D01*
D29*
%TO.N,+3.3V*%
X163276000Y-96130346D02*
X165070654Y-96130346D01*
D30*
X149451000Y-100330346D02*
X149451000Y-101980346D01*
X151024000Y-110924000D02*
X149451000Y-109351000D01*
X159101000Y-107130346D02*
X158226000Y-106255346D01*
D29*
X155689796Y-100130346D02*
X155966500Y-99853642D01*
X155326000Y-92980346D02*
X154176000Y-92980346D01*
D30*
X176325000Y-87950000D02*
X166625000Y-87950000D01*
D29*
X164476000Y-105875000D02*
X164370654Y-105980346D01*
D30*
X152619654Y-110924000D02*
X151251000Y-109555346D01*
X164600000Y-89913000D02*
X164600000Y-95637000D01*
D31*
X153912500Y-100397522D02*
X154179676Y-100130346D01*
X153026000Y-102005346D02*
X153912500Y-101118846D01*
D29*
X165070654Y-96130346D02*
X165126000Y-96075000D01*
D31*
X154179676Y-100130346D02*
X154951000Y-100130346D01*
D29*
X167450000Y-110950000D02*
X164476000Y-107976000D01*
D30*
X159101000Y-109351000D02*
X159101000Y-108580346D01*
X160700000Y-110950000D02*
X159075000Y-110950000D01*
D29*
X155689796Y-96130346D02*
X154951000Y-96130346D01*
D30*
X164476000Y-104505346D02*
X164476000Y-103405346D01*
X149451000Y-109351000D02*
X149451000Y-101980346D01*
D29*
X155966500Y-96407050D02*
X155689796Y-96130346D01*
X155689796Y-95391550D02*
X156363500Y-94717846D01*
X163604000Y-103633346D02*
X164476000Y-104505346D01*
X164476000Y-106900000D02*
X164476000Y-105875000D01*
D31*
X153912500Y-101118846D02*
X153912500Y-100397522D01*
D30*
X159075000Y-110950000D02*
X159101000Y-110924000D01*
D29*
X154176000Y-92980346D02*
X154026000Y-93130346D01*
D30*
X170676000Y-108955346D02*
X168681346Y-110950000D01*
X149451000Y-101980346D02*
X151101000Y-101980346D01*
X170676000Y-108955346D02*
X175769654Y-108955346D01*
X159101000Y-110924000D02*
X152619654Y-110924000D01*
D29*
X155966500Y-99853642D02*
X155966500Y-96407050D01*
D30*
X175769654Y-108955346D02*
X176325000Y-108400000D01*
D29*
X169398000Y-103933346D02*
X167730518Y-103933346D01*
D31*
X172113500Y-100530346D02*
X172113500Y-101267846D01*
D30*
X160700000Y-110950000D02*
X159101000Y-109351000D01*
D31*
X153001000Y-101980346D02*
X153026000Y-102005346D01*
D29*
X154026000Y-93130346D02*
X151526000Y-93130346D01*
D30*
X165026000Y-102855346D02*
X165026000Y-101942846D01*
D29*
X164476000Y-105875000D02*
X164476000Y-104505346D01*
D30*
X164675000Y-95624000D02*
X165126000Y-96075000D01*
D29*
X170676000Y-102655346D02*
X169398000Y-103933346D01*
D30*
X151176000Y-105300000D02*
X153026000Y-103450000D01*
X167450000Y-110950000D02*
X160700000Y-110950000D01*
X164476000Y-103405346D02*
X165026000Y-102855346D01*
D29*
X162454000Y-103633346D02*
X163604000Y-103633346D01*
X164370654Y-105980346D02*
X162476000Y-105980346D01*
D30*
X151251000Y-109555346D02*
X151251000Y-108630346D01*
D29*
X155326000Y-92980346D02*
X155326000Y-93680346D01*
X167730518Y-103933346D02*
X166638500Y-102841328D01*
D30*
X151176000Y-108555346D02*
X151251000Y-108630346D01*
X152619654Y-110924000D02*
X151024000Y-110924000D01*
D29*
X155326000Y-93680346D02*
X156363500Y-94717846D01*
D30*
X151176000Y-101905346D02*
X151176000Y-105300000D01*
X165026000Y-101942846D02*
X166638500Y-100330346D01*
D31*
X172113500Y-101267846D02*
X170701000Y-102680346D01*
D29*
X155689796Y-96130346D02*
X155689796Y-95391550D01*
X150276000Y-91880346D02*
X150276000Y-90830346D01*
D30*
X152926000Y-101905346D02*
X153026000Y-102005346D01*
X176325000Y-108400000D02*
X176325000Y-87950000D01*
X159101000Y-108580346D02*
X159101000Y-107130346D01*
D29*
X151526000Y-93130346D02*
X150276000Y-91880346D01*
X164476000Y-107976000D02*
X164476000Y-106900000D01*
D30*
X151176000Y-105300000D02*
X151176000Y-108555346D01*
X168681346Y-110950000D02*
X167450000Y-110950000D01*
D29*
X166638500Y-102841328D02*
X166638500Y-100330346D01*
D30*
X151101000Y-101980346D02*
X151176000Y-101905346D01*
X166625000Y-87950000D02*
X164675000Y-89900000D01*
D29*
X154951000Y-100130346D02*
X155689796Y-100130346D01*
D30*
X153026000Y-103450000D02*
X153026000Y-102005346D01*
D29*
X161863500Y-103042846D02*
X162454000Y-103633346D01*
D30*
X151176000Y-101905346D02*
X152926000Y-101905346D01*
D31*
%TO.N,Net-(U1-PD0)*%
X152676000Y-95417846D02*
X151926000Y-96167846D01*
X152217176Y-96167846D02*
X151926000Y-96167846D01*
X154179676Y-98130346D02*
X152217176Y-96167846D01*
X152676000Y-94355346D02*
X152676000Y-95417846D01*
X154951000Y-98130346D02*
X154179676Y-98130346D01*
%TO.N,Net-(U1-PD1)*%
X150326000Y-97905346D02*
X148926000Y-96505346D01*
X154076000Y-98630346D02*
X154951000Y-98630346D01*
X151050000Y-97366846D02*
X152812500Y-97366846D01*
X150326000Y-98367846D02*
X150326000Y-97905346D01*
X150326000Y-98367846D02*
X150326000Y-98090846D01*
X150326000Y-98090846D02*
X151050000Y-97366846D01*
X152812500Y-97366846D02*
X154076000Y-98630346D01*
X148926000Y-96505346D02*
X148926000Y-96055346D01*
%TO.N,/NRST*%
X148376000Y-99505346D02*
X148701000Y-99180346D01*
X154179676Y-99130346D02*
X154951000Y-99130346D01*
X148301000Y-100805346D02*
X148376000Y-100805346D01*
X148701000Y-99180346D02*
X148889500Y-99368846D01*
X147051000Y-97905346D02*
X148326000Y-99180346D01*
X147051000Y-102055346D02*
X148301000Y-100805346D01*
X148376000Y-100805346D02*
X148376000Y-99505346D01*
X148326000Y-99180346D02*
X148701000Y-99180346D01*
X153941176Y-99368846D02*
X154179676Y-99130346D01*
X148889500Y-99368846D02*
X153941176Y-99368846D01*
D30*
%TO.N,VBUS*%
X172302000Y-97779346D02*
X172302000Y-95855346D01*
X170976000Y-99105346D02*
X172302000Y-97779346D01*
X168401000Y-102680346D02*
X168401000Y-101680346D01*
X168401000Y-101680346D02*
X170976000Y-99105346D01*
D31*
%TO.N,Net-(D1-C)*%
X168213500Y-100330346D02*
X168213500Y-98942846D01*
X168213500Y-98942846D02*
X168051000Y-98780346D01*
D29*
%TO.N,/SWDIO*%
X162364500Y-93514846D02*
X162364500Y-95699812D01*
X161581346Y-95979346D02*
X161200000Y-96360692D01*
D31*
X163576000Y-90323486D02*
X163576000Y-90155346D01*
D29*
X161200000Y-96900000D02*
X161581346Y-97281346D01*
X161200000Y-96360692D02*
X161200000Y-96900000D01*
X162084966Y-95979346D02*
X161581346Y-95979346D01*
X161581346Y-97281346D02*
X162282966Y-97281346D01*
X162282966Y-97281346D02*
X162433966Y-97130346D01*
X162364500Y-95699812D02*
X162084966Y-95979346D01*
X163576000Y-92303346D02*
X162364500Y-93514846D01*
X162433966Y-97130346D02*
X163276000Y-97130346D01*
X163576000Y-90155346D02*
X163576000Y-92303346D01*
D31*
%TO.N,/SWDCLK*%
X162576000Y-90756386D02*
X161863500Y-91468886D01*
X161863500Y-91468886D02*
X161863500Y-94717846D01*
X162576000Y-90155346D02*
X162576000Y-90756386D01*
%TO.N,/USB_DP*%
X170976000Y-95855346D02*
X170976000Y-95868949D01*
X164407251Y-97655346D02*
X164382251Y-97630346D01*
X165751000Y-97655346D02*
X164407251Y-97655346D01*
X167087632Y-97655346D02*
X165951000Y-97655346D01*
X170852000Y-96806346D02*
X170038603Y-96806346D01*
X170038603Y-96806346D02*
X169315583Y-97529366D01*
X167213612Y-97529366D02*
X167087632Y-97655346D01*
X165951000Y-97655346D02*
X165751000Y-97655346D01*
X164382251Y-97630346D02*
X163276000Y-97630346D01*
X170976000Y-95868949D02*
X170852000Y-95992949D01*
X170852000Y-95992949D02*
X170852000Y-96806346D01*
X169315583Y-97529366D02*
X167213612Y-97529366D01*
%TO.N,/USB_DN*%
X164407251Y-98105346D02*
X164382251Y-98130346D01*
X171038388Y-97256326D02*
X170225020Y-97256326D01*
X171502000Y-96792714D02*
X171038388Y-97256326D01*
X170225020Y-97256326D02*
X169502000Y-97979346D01*
X171626000Y-95855346D02*
X171502000Y-95979346D01*
X169502000Y-97979346D02*
X167400000Y-97979346D01*
X167400000Y-98105346D02*
X164407251Y-98105346D01*
X164382251Y-98130346D02*
X163276000Y-98130346D01*
X171502000Y-95979346D02*
X171502000Y-96792714D01*
X167400000Y-97979346D02*
X167400000Y-98105346D01*
%TO.N,/SPI1_MOSI*%
X158412500Y-103091846D02*
X158363500Y-103042846D01*
X155251000Y-108630346D02*
X155251000Y-107316846D01*
X155251000Y-107316846D02*
X158412500Y-104155346D01*
X158412500Y-104155346D02*
X158412500Y-103091846D01*
%TO.N,/SPI1_MISO*%
X154251000Y-108630346D02*
X154251000Y-107560870D01*
X154251000Y-107560870D02*
X157863500Y-103948370D01*
X157863500Y-103948370D02*
X157863500Y-103042846D01*
%TO.N,/SPI1_NSS*%
X152251000Y-108426670D02*
X156863500Y-103814170D01*
X156863500Y-103814170D02*
X156863500Y-103042846D01*
X152251000Y-108630346D02*
X152251000Y-108426670D01*
%TO.N,/SPI1_SCK*%
X153251000Y-107993770D02*
X157363500Y-103881270D01*
X157363500Y-103881270D02*
X157363500Y-103042846D01*
X153251000Y-108630346D02*
X153251000Y-107993770D01*
D29*
%TO.N,/I2C_SDA*%
X161101000Y-106105346D02*
X160976000Y-105980346D01*
D31*
X161001000Y-106330346D02*
X160863500Y-106192846D01*
D29*
X161101000Y-108580346D02*
X161101000Y-106105346D01*
D31*
X160863500Y-106192846D02*
X160863500Y-103042846D01*
D29*
%TO.N,/I2C_SCL*%
X160101000Y-106630346D02*
X159726000Y-106255346D01*
D31*
X159726000Y-106255346D02*
X160363500Y-105617846D01*
X160363500Y-105617846D02*
X160363500Y-103042846D01*
D29*
X160101000Y-108580346D02*
X160101000Y-106630346D01*
%TO.N,/BOOT_SW*%
X157351000Y-92130346D02*
X157826000Y-91655346D01*
X151776000Y-92130346D02*
X157351000Y-92130346D01*
X151776000Y-90830346D02*
X151776000Y-92130346D01*
D31*
%TO.N,/BOOT0*%
X159326000Y-91655346D02*
X159326000Y-92430289D01*
X159326000Y-92430289D02*
X158363500Y-93392789D01*
X158363500Y-93392789D02*
X158363500Y-94717846D01*
%TD*%
%TA.AperFunction,Conductor*%
%TO.N,+3.3V*%
G36*
X171666665Y-103125031D02*
G01*
X171712420Y-103177835D01*
X171721151Y-103204697D01*
X172746392Y-108259376D01*
X172740427Y-108328991D01*
X172697772Y-108384329D01*
X172631970Y-108407821D01*
X172627081Y-108408005D01*
X168736769Y-108477475D01*
X168669389Y-108458991D01*
X168622698Y-108407012D01*
X168611522Y-108338042D01*
X168614083Y-108324126D01*
X168629868Y-108259376D01*
X169801000Y-103455346D01*
X169800991Y-103455378D01*
X169805637Y-103436321D01*
X169805313Y-103436128D01*
X169805039Y-103435576D01*
X169804513Y-103435256D01*
X169789508Y-103404332D01*
X169774213Y-103373561D01*
X169774190Y-103372762D01*
X169774012Y-103372395D01*
X169773187Y-103337119D01*
X169787893Y-103214571D01*
X169815426Y-103150354D01*
X169873306Y-103111217D01*
X169911010Y-103105346D01*
X171599626Y-103105346D01*
X171666665Y-103125031D01*
G37*
%TD.AperFunction*%
%TD*%
M02*
